<svg width="28" height="28" viewBox="0 0 28 28" fill="none" xmlns="http://www.w3.org/2000/svg">
<rect width="28" height="28" rx="8" fill="#013F2D"/>
<path fill-rule="evenodd" clip-rule="evenodd" d="M14.0032 8.65303C14.2717 8.65303 14.4893 8.87067 14.4893 9.13914V13.5141H18.8643C19.1328 13.5141 19.3504 13.7318 19.3504 14.0003C19.3504 14.2687 19.1328 14.4864 18.8643 14.4864H14.4893V18.8614C14.4893 19.1298 14.2717 19.3475 14.0032 19.3475C13.7347 19.3475 13.5171 19.1298 13.5171 18.8614V14.4864H9.14207C8.8736 14.4864 8.65596 14.2687 8.65596 14.0003C8.65596 13.7318 8.8736 13.5141 9.14207 13.5141H13.5171V9.13914C13.5171 8.87067 13.7347 8.65303 14.0032 8.65303Z" fill="url(#paint0_linear_4777_17081)"/>
<path fill-rule="evenodd" clip-rule="evenodd" d="M12.8689 9.13914C12.8689 8.51271 13.3767 8.00488 14.0032 8.00488C14.6296 8.00488 15.1374 8.51271 15.1374 9.13914V12.866H18.8643C19.4907 12.866 19.9986 13.3738 19.9986 14.0003C19.9986 14.6267 19.4907 15.1345 18.8643 15.1345H15.1374V18.8614C15.1374 19.4878 14.6296 19.9956 14.0032 19.9956C13.3767 19.9956 12.8689 19.4878 12.8689 18.8614V15.1345H9.14207C8.51564 15.1345 8.00781 14.6267 8.00781 14.0003C8.00781 13.3738 8.51564 12.866 9.14207 12.866H12.8689V9.13914ZM14.0032 13.9429C13.9853 13.9632 13.9661 13.9823 13.9458 14.0003C13.9661 14.0182 13.9853 14.0373 14.0032 14.0576C14.0211 14.0373 14.0403 14.0182 14.0606 14.0003C14.0403 13.9823 14.0211 13.9632 14.0032 13.9429Z" fill="url(#paint1_linear_4777_17081)"/>
<defs>
<linearGradient id="paint0_linear_4777_17081" x1="8.00781" y1="8.00488" x2="19.9986" y2="19.9956" gradientUnits="userSpaceOnUse">
<stop stop-color="#5DEB5A"/>
<stop offset="1" stop-color="#FDFC47"/>
</linearGradient>
<linearGradient id="paint1_linear_4777_17081" x1="8.00781" y1="8.00488" x2="19.9986" y2="19.9956" gradientUnits="userSpaceOnUse">
<stop stop-color="#5DEB5A"/>
<stop offset="1" stop-color="#FDFC47"/>
</linearGradient>
</defs>
</svg>
