<svg width="12" height="12" viewBox="0 0 12 12" fill="none" xmlns="http://www.w3.org/2000/svg">
    <g fill="currentColor">
        <path fill-rule="evenodd" clip-rule="evenodd" d="M4.26641 3.8999C4.26641 1.96691 5.83341 0.399902 7.76641 0.399902C9.6994 0.399902 11.2664 1.96691 11.2664 3.8999C11.2664 5.8329 9.6994 7.3999 7.76641 7.3999C7.42877 7.3999 7.10229 7.35209 6.79338 7.26287L5.46138 8.59488C5.33011 8.72615 5.15206 8.7999 4.96641 8.7999H4.26641V9.4999C4.26641 9.8865 3.95301 10.1999 3.56641 10.1999H2.86641V10.8999C2.86641 11.2865 2.55301 11.5999 2.16641 11.5999H0.766406C0.379807 11.5999 0.0664062 11.2865 0.0664062 10.8999V9.4999C0.0664062 9.31425 0.140156 9.1362 0.271432 9.00493L4.40343 4.87292C4.31422 4.56402 4.26641 4.23754 4.26641 3.8999ZM7.76641 1.5749C7.35219 1.5749 7.01641 1.91069 7.01641 2.3249C7.01641 2.73912 7.35219 3.0749 7.76641 3.0749C8.22204 3.0749 8.59141 3.44427 8.59141 3.8999C8.59141 4.31412 8.92719 4.6499 9.34141 4.6499C9.75562 4.6499 10.0914 4.31412 10.0914 3.8999C10.0914 2.61584 9.05047 1.5749 7.76641 1.5749Z" />
    </g>
</svg>
