<svg width="11" height="13" viewBox="0 0 11 13" fill="none" xmlns="http://www.w3.org/2000/svg">
    <g fill="currentColor">
        <path d="M5.33426 2.12994V2.13056C6.2784 2.13056 7.04347 2.87962 7.04347 3.80399V5.63921H3.62441V3.80399C3.62441 2.87962 4.38948 2.12994 5.33426 2.12994ZM4.67123 8.2892H5.99728C6.16945 8.2892 6.30907 8.42589 6.30907 8.59446V10.4518C6.30907 10.6204 6.16946 10.7571 5.99728 10.7571H4.67061C4.58797 10.7571 4.50908 10.7252 4.45023 10.6676C4.392 10.6106 4.35944 10.5327 4.35944 10.4518V8.59446C4.35944 8.51355 4.392 8.4357 4.45023 8.37869C4.50908 8.32107 4.58797 8.28919 4.67061 8.28919L4.67123 8.2892ZM5.33426 0.25H5.33363C3.32887 0.25 1.70365 1.84136 1.70365 3.80401V5.63923H0.770776C0.688133 5.63923 0.608622 5.6711 0.550393 5.72872C0.492167 5.78573 0.458984 5.86297 0.458984 5.94388V12.6947C0.458984 12.7756 0.492167 12.8529 0.550393 12.9105C0.608619 12.9675 0.688133 13 0.770776 13L9.8972 12.9994C10.0694 12.9994 10.209 12.8627 10.209 12.6941V5.94452C10.209 5.77596 10.0694 5.63926 9.8972 5.63926H8.96433V3.80404C8.96433 1.84124 7.33886 0.25 5.33426 0.25Z"/>
    </g>
</svg>
