<svg fill="none" xmlns="http://www.w3.org/2000/svg" viewBox="0 0 56 56"><path d="M34.001 13a1.484 1.484 0 0 0-1.431 1.07l-4.124 14.37-14.359 4.126a1.488 1.488 0 0 0 0 2.865l15.142 4.352a1.484 1.484 0 0 0 1.845-1.019 1.488 1.488 0 0 0-1.015-1.838l-10.164-2.927 10.164-2.927c.49-.144.874-.528 1.015-1.019L34 19.873l2.925 10.18h.002c.141.49.525.875 1.018 1.019l10.164 2.927-10.164 2.927a1.487 1.487 0 0 0-1.018 1.018l-2.89 10.045-.998-3.665a1.488 1.488 0 0 0-2.873.783L32.57 53.9a1.487 1.487 0 0 0 2.863.027l4.123-14.37 14.36-4.126A1.486 1.486 0 0 0 55 34c0-.667-.443-1.254-1.085-1.433L39.556 28.44l-4.123-14.37A1.487 1.487 0 0 0 34 13Z" fill="currentColor" stroke="currentColor" stroke-width="1.5"/><path d="M12.5 3c-.45 0-.843.296-.97.726l-1.967 6.838-6.838 1.967a1.009 1.009 0 0 0 0 1.938l6.838 1.967 1.967 6.837a1.01 1.01 0 0 0 1.938 0l1.967-6.837 6.838-1.967a1.009 1.009 0 0 0 0-1.938l-6.838-1.967-1.967-6.838A1.007 1.007 0 0 0 12.499 3Z" fill="currentColor"/><path d="m18.347 13.5-4.006 1.153a1.004 1.004 0 0 0-.688.688l-1.154 4.006-1.152-4.006a1.01 1.01 0 0 0-.688-.688L6.652 13.5l4.007-1.152c.332-.096.59-.357.688-.688M12.5 3c-.449 0-.842.296-.969.726l-1.967 6.838-6.838 1.967a1.009 1.009 0 0 0 0 1.938l6.838 1.967 1.967 6.837a1.01 1.01 0 0 0 1.938 0l1.967-6.837 6.838-1.967a1.009 1.009 0 0 0 0-1.938l-6.838-1.967-1.967-6.838A1.007 1.007 0 0 0 12.499 3Z" stroke="currentColor" stroke-width="1.5"/></svg>