<svg fill="none" xmlns="http://www.w3.org/2000/svg" viewBox="0 0 20 20"><path fill-rule="evenodd" clip-rule="evenodd" d="M20 8.956v2.088c0 1.363 0 2.447-.071 3.321-.074.896-.227 1.66-.583 2.359a6 6 0 0 1-2.622 2.622c-.7.356-1.463.51-2.359.582-.874.072-1.958.072-3.321.072H8.956c-1.363 0-2.447 0-3.321-.072-.896-.073-1.66-.226-2.359-.582a6 6 0 0 1-2.622-2.622c-.356-.7-.51-1.463-.583-2.359C0 13.491 0 12.407 0 11.044V8.956C0 7.593 0 6.51.071 5.635c.074-.896.227-1.66.583-2.359A6 6 0 0 1 3.276.654c.7-.356 1.463-.51 2.359-.583C6.509 0 7.593 0 8.956 0h2.088c1.363 0 2.447 0 3.321.071.896.074 1.66.227 2.359.583a6 6 0 0 1 2.622 2.622c.356.7.51 1.463.583 2.359C20 6.509 20 7.593 20 8.956Zm-2.065-3.159c-.063-.771-.182-1.243-.371-1.613a4 4 0 0 0-1.748-1.748c-.37-.189-.841-.308-1.613-.371C13.419 2 12.417 2 11 2H9c-1.417 0-2.419 0-3.203.065-.771.063-1.243.182-1.613.371a4 4 0 0 0-1.748 1.748c-.189.37-.308.842-.371 1.613C2 6.581 2 7.583 2 9v2c0 1.417 0 2.419.065 3.203.063.772.182 1.243.371 1.613a4 4 0 0 0 1.748 1.748c.37.189.842.308 1.613.371C6.581 18 7.583 18 9 18h2c1.417 0 2.419 0 3.203-.065.772-.063 1.243-.182 1.613-.371a4 4 0 0 0 1.748-1.748c.189-.37.308-.841.371-1.614C18 13.42 18 12.418 18 11V9c0-1.417 0-2.419-.065-3.203ZM14.5 7.11a1 1 0 0 1 1 1v6.39a1 1 0 1 1-2 0V8.11a1 1 0 0 1 1-1ZM10 4.95a1 1 0 0 1 1 1v8.55a1 1 0 1 1-2 0V5.95a1 1 0 0 1 1-1ZM5.5 9.405a1 1 0 0 1 1 1V14.5a1 1 0 1 1-2 0v-4.095a1 1 0 0 1 1-1Z" fill="currentColor"/></svg>