<svg fill="none" xmlns="http://www.w3.org/2000/svg" viewBox="0 0 21 22"><path fill-rule="evenodd" clip-rule="evenodd" d="M9.233.592a4 4 0 0 1 1.716 0c.642.14 1.226.491 2 .956l.126.076L17.366 4.2l.12.072c.733.439 1.286.77 1.7 1.24.364.415.639.9.806 1.425.19.597.19 1.242.19 2.097v3.935c0 .854 0 1.499-.19 2.096a3.998 3.998 0 0 1-.806 1.424c-.414.47-.967.802-1.7 1.242l-.12.071-4.29 2.575-.128.076c-.773.465-1.357.815-1.999.956a4.003 4.003 0 0 1-.52.08 1 1 0 0 1-.675 0 4.003 4.003 0 0 1-.52-.08c-.643-.14-1.227-.491-2-.956l-.127-.076L2.816 17.8l-.12-.071c-.733-.44-1.286-.771-1.7-1.242a4 4 0 0 1-.806-1.424C0 14.467 0 13.822 0 12.967V9.032c0-.854 0-1.499.19-2.096a4 4 0 0 1 .806-1.424c.414-.47.967-.802 1.7-1.241l.12-.072 4.291-2.575.127-.076c.773-.465 1.357-.815 2-.956Zm1.858 18.625c.22-.119.518-.294.955-.556l4.291-2.575c.907-.544 1.166-.712 1.347-.918.182-.207.32-.45.403-.713.084-.261.095-.57.095-1.627V9.172c0-.844-.007-1.21-.053-1.458l-7.038 4.301v7.202Zm-1-8.934 6.7-4.095c-.13-.08-.28-.17-.454-.274l-4.29-2.575c-.959-.575-1.245-.732-1.527-.794a2 2 0 0 0-.858 0c-.281.062-.568.22-1.526.794L3.845 5.914a66.05 66.05 0 0 0-.454.274l6.7 4.095ZM2.053 7.714C2.007 7.961 2 8.328 2 9.172v3.656c0 1.057.011 1.366.095 1.627a2 2 0 0 0 .403.713c.182.206.44.374 1.347.918l4.29 2.575c.438.262.735.437.956.556v-7.202l-7.038-4.3Z" fill="currentColor"/></svg>