<svg width="86" height="26" viewBox="0 0 86 26" fill="none" xmlns="http://www.w3.org/2000/svg">
<path fill-rule="evenodd" clip-rule="evenodd" d="M13.5435 4.31641C9.55527 4.31641 6.26824 7.65659 6.26824 11.8444C6.26824 11.8899 6.26863 11.9353 6.2694 11.9806C6.27779 12.4711 5.95043 12.9041 5.47619 13.0297C3.89462 13.4486 2.69324 14.9429 2.69324 16.7556C2.69324 18.9092 4.37969 20.6003 6.3935 20.6003H19.5018C22.1738 20.6003 24.3938 18.3595 24.3938 15.5278C24.3938 13.3528 23.0773 11.5155 21.2533 10.7898C20.9301 10.6613 20.69 10.3832 20.6098 10.0449C19.8256 6.73548 16.9407 4.31641 13.5435 4.31641ZM4.15394 11.2346C4.45982 6.20941 8.51947 2.18359 13.5435 2.18359C17.8067 2.18359 21.3787 5.08654 22.5466 9.03282C24.9115 10.2007 26.5266 12.6791 26.5266 15.5278C26.5266 19.4769 23.4113 22.7331 19.5018 22.7331H6.3935C3.1422 22.7331 0.560425 20.0266 0.560425 16.7556C0.560425 14.282 2.03142 12.139 4.15394 11.2346Z" fill="#5DEB5A"/>
<path d="M40.1363 20.4454C43.4207 20.4454 45.6775 18.5312 46.4432 15.8512L44.6902 15.2064C44.1058 17.161 42.5744 18.6319 40.1363 18.6319C37.5369 18.6319 35.0585 16.7177 35.0585 12.9899C35.0585 9.26217 37.5369 7.36807 40.1363 7.36807C42.4737 7.36807 44.0454 8.57707 44.5894 10.7331L46.4231 10.0883C45.6977 7.32777 43.4006 5.55457 40.1363 5.55457C36.5899 5.55457 33.0435 8.21437 33.0435 12.9899C33.0435 17.7655 36.4488 20.4454 40.1363 20.4454Z" fill="#5DEB5A"/>
<path d="M48.6644 20.1432H50.5585V5.55457H48.6644V20.1432Z" fill="#5DEB5A"/>
<path d="M57.9315 10.1488C55.0299 10.1488 52.9746 12.3451 52.9746 15.287C52.9746 18.2491 55.0299 20.4454 57.9315 20.4454C60.8331 20.4454 62.8884 18.2491 62.8884 15.287C62.8884 12.3451 60.8331 10.1488 57.9315 10.1488ZM57.9315 18.7528C56.3195 18.7528 54.909 17.5438 54.909 15.287C54.909 13.0504 56.3195 11.8414 57.9315 11.8414C59.5435 11.8414 60.954 13.0504 60.954 15.287C60.954 17.5438 59.5435 18.7528 57.9315 18.7528Z" fill="#5DEB5A"/>
<path d="M71.601 18.9745C71.601 19.3775 71.6413 19.9215 71.6816 20.1432H73.4951C73.4548 19.8006 73.3943 19.1155 73.3943 18.3498V10.451H71.5002V16.2945C71.5002 17.7655 70.7345 18.773 69.2031 18.773C67.6113 18.773 67.0068 17.6043 67.0068 16.2744V10.451H65.1127V16.5565C65.1127 18.7528 66.4829 20.4454 68.7397 20.4454C69.8681 20.4454 71.0771 19.982 71.601 18.9745Z" fill="#5DEB5A"/>
<path d="M83.3187 18.6722V18.8334C83.3187 19.4178 83.3791 19.9215 83.4194 20.1432H85.2531C85.2329 19.982 85.1523 19.2767 85.1523 18.3498V5.55457H83.2784V11.8212C82.956 11.0354 82.0291 10.1891 80.3163 10.1891C77.5759 10.1891 75.7221 12.5265 75.7221 15.2669C75.7221 18.1483 77.4752 20.4051 80.3163 20.4051C81.8276 20.4051 82.8552 19.5991 83.3187 18.6722ZM77.6565 15.2669C77.6565 13.272 78.7849 11.8615 80.5178 11.8615C82.2507 11.8615 83.2985 13.2317 83.2985 15.2266C83.2985 17.2214 82.2305 18.7327 80.4977 18.7327C78.6842 18.7327 77.6565 17.2617 77.6565 15.2669Z" fill="#5DEB5A"/>
</svg>
