<svg width="217" height="28" viewBox="0 0 217 28" fill="none" xmlns="http://www.w3.org/2000/svg">
<path d="M32.7842 5.89233C32.9089 5.89233 33.0094 5.9927 33.0094 6.11722V15.6444C33.0094 20.1617 30.18 22.3846 26.4461 22.3846C22.7123 22.3846 19.8828 20.1607 19.8828 15.6444V6.11722C19.8828 5.9927 19.9833 5.89233 20.108 5.89233H22.3243C22.449 5.89233 22.5494 5.9927 22.5494 6.11722V15.4817C22.5494 18.6321 24.1963 19.8829 26.4461 19.8829C28.6959 19.8829 30.3428 18.6321 30.3428 15.4817V6.11722C30.3428 5.9927 30.4433 5.89233 30.5679 5.89233H32.7842Z" fill="#0F172A"/>
<path d="M71.6419 14C71.6186 18.772 67.9778 22.3851 63.2233 22.3851C58.4687 22.3851 54.8047 18.772 54.8047 14C54.8047 9.2281 58.4687 5.61499 63.2233 5.61499C67.9778 5.61499 71.6186 9.2281 71.6419 14ZM57.4481 14C57.4481 17.3817 59.9295 19.8834 63.2233 19.8834C66.517 19.8834 68.9752 17.3817 68.9752 14C68.9752 10.6183 66.4938 8.11666 63.2233 8.11666C59.9528 8.11666 57.4481 10.6183 57.4481 14Z" fill="#0F172A"/>
<path d="M95.2787 22.1073H92.9833C92.8252 22.1073 92.7163 21.9484 92.773 21.8016L98.8479 6.13088C98.8981 6.00078 99.0237 5.91528 99.1633 5.91528H102.036C102.175 5.91528 102.3 6.00078 102.351 6.13088L108.426 21.8016C108.483 21.9494 108.374 22.1073 108.216 22.1073H105.92C105.826 22.1073 105.742 22.0497 105.71 21.9624L100.811 9.06002C100.738 8.86673 100.463 8.86673 100.39 9.06002L95.4899 21.9624C95.4564 22.0497 95.3727 22.1073 95.2796 22.1073H95.2787Z" fill="#0F172A"/>
<path d="M2.5209 22.1071H0.225513C0.0673383 22.1071 -0.0415237 21.9482 0.015233 21.8014L6.09005 6.13064C6.1403 6.00054 6.26591 5.91504 6.40547 5.91504H9.27773C9.4173 5.91504 9.54198 6.00054 9.59315 6.13064L15.668 21.8014C15.7247 21.9491 15.6159 22.1071 15.4577 22.1071H13.1623C13.0683 22.1071 12.9846 22.0495 12.952 21.9621L8.05328 9.05978C7.97977 8.86649 7.70529 8.86649 7.63179 9.05978L2.73211 21.9621C2.69861 22.0495 2.61487 22.1071 2.52183 22.1071H2.5209Z" fill="#0F172A"/>
<path d="M88.8262 21.744L84.2699 15.9312C86.8407 15.4452 88.3461 13.7102 88.3461 11.0506C88.3461 7.99691 86.354 5.91528 82.8342 5.91528H76.4784C76.2923 5.91528 76.1406 6.06676 76.1406 6.25262C76.1406 7.44583 77.1092 8.41323 78.3039 8.41323H82.556C84.6867 8.41323 85.7055 9.50051 85.7055 11.0738C85.7055 12.6471 84.709 13.7576 82.556 13.7576H76.4784C76.2923 13.7576 76.1406 13.9091 76.1406 14.0949V21.8834C76.1406 22.0079 76.2411 22.1083 76.3658 22.1083H78.5328C78.6575 22.1083 78.7579 22.0079 78.7579 21.8834V16.0706H81.259L85.2152 21.2273C85.6413 21.783 86.3019 22.1083 87.0025 22.1083H88.6485C88.8364 22.1083 88.9416 21.8927 88.8262 21.7449V21.744Z" fill="#0F172A"/>
<path d="M51.1543 21.744L46.598 15.9312C49.1688 15.4452 50.6742 13.7102 50.6742 11.0506C50.6742 7.99691 48.6822 5.91528 45.1623 5.91528H38.8065C38.6204 5.91528 38.4688 6.06676 38.4688 6.25262C38.4688 7.44583 39.4373 8.41323 40.632 8.41323H44.8841C47.0148 8.41323 48.0336 9.50051 48.0336 11.0738C48.0336 12.6471 47.0371 13.7576 44.8841 13.7576H38.8065C38.6204 13.7576 38.4688 13.9091 38.4688 14.0949V21.8834C38.4688 22.0079 38.5692 22.1083 38.6939 22.1083H40.8609C40.9856 22.1083 41.0861 22.0079 41.0861 21.8834V16.0706H43.5871L47.5433 21.2273C47.9694 21.783 48.63 22.1083 49.3307 22.1083H50.9766C51.1646 22.1083 51.2697 21.8927 51.1543 21.7449V21.744Z" fill="#0F172A"/>
<path d="M116.699 2.80005H117.4V25.2001H116.699V2.80005Z" fill="#CBD5E1"/>
<path fill-rule="evenodd" clip-rule="evenodd" d="M139.679 4.64844C135.378 4.64844 131.834 8.24556 131.834 12.7556C131.834 12.8045 131.835 12.8534 131.835 12.9022C131.844 13.4304 131.491 13.8967 130.98 14.032C129.275 14.4831 127.979 16.0923 127.979 18.0444C127.979 20.3637 129.798 22.1849 131.969 22.1849H146.103C148.984 22.1849 151.378 19.7717 151.378 16.7222C151.378 14.3799 149.958 12.4013 147.992 11.6198C147.643 11.4814 147.384 11.182 147.298 10.8175C146.452 7.25359 143.342 4.64844 139.679 4.64844ZM129.554 12.0988C129.884 6.68706 134.261 2.35156 139.679 2.35156C144.275 2.35156 148.127 5.47781 149.386 9.72765C151.936 10.9854 153.678 13.6544 153.678 16.7222C153.678 20.9751 150.318 24.4818 146.103 24.4818H131.969C128.463 24.4818 125.68 21.5671 125.68 18.0444C125.68 15.3806 127.266 13.0727 129.554 12.0988Z" fill="#17A615"/>
<path d="M168.355 22.0182C171.896 22.0182 174.33 19.9567 175.155 17.0706L173.265 16.3762C172.635 18.4811 170.984 20.0652 168.355 20.0652C165.552 20.0652 162.88 18.0037 162.88 13.9892C162.88 9.97473 165.552 7.93493 168.355 7.93493C170.875 7.93493 172.57 9.23693 173.156 11.5588L175.134 10.8644C174.351 7.89153 171.875 5.98193 168.355 5.98193C164.531 5.98193 160.707 8.84633 160.707 13.9892C160.707 19.1321 164.379 22.0182 168.355 22.0182Z" fill="#17A615"/>
<path d="M177.55 21.6927H179.593V5.98193H177.55V21.6927Z" fill="#17A615"/>
<path d="M187.542 10.9295C184.414 10.9295 182.198 13.2948 182.198 16.463C182.198 19.6529 184.414 22.0182 187.542 22.0182C190.671 22.0182 192.887 19.6529 192.887 16.463C192.887 13.2948 190.671 10.9295 187.542 10.9295ZM187.542 20.1954C185.804 20.1954 184.283 18.8934 184.283 16.463C184.283 14.0543 185.804 12.7523 187.542 12.7523C189.281 12.7523 190.801 14.0543 190.801 16.463C190.801 18.8934 189.281 20.1954 187.542 20.1954Z" fill="#17A615"/>
<path d="M202.281 20.4341C202.281 20.8681 202.325 21.454 202.368 21.6927H204.324C204.28 21.3238 204.215 20.586 204.215 19.7614V11.255H202.173V17.548C202.173 19.1321 201.347 20.2171 199.696 20.2171C197.98 20.2171 197.328 18.9585 197.328 17.5263V11.255H195.285V17.8301C195.285 20.1954 196.763 22.0182 199.196 22.0182C200.413 22.0182 201.717 21.5191 202.281 20.4341Z" fill="#17A615"/>
<path d="M214.916 20.1086V20.2822C214.916 20.9115 214.981 21.454 215.025 21.6927H217.002C216.98 21.5191 216.893 20.7596 216.893 19.7614V5.98193H214.873V12.7306C214.525 11.8843 213.525 10.9729 211.679 10.9729C208.724 10.9729 206.725 13.4901 206.725 16.4413C206.725 19.5444 208.615 21.9748 211.679 21.9748C213.308 21.9748 214.416 21.1068 214.916 20.1086ZM208.811 16.4413C208.811 14.293 210.028 12.774 211.896 12.774C213.764 12.774 214.894 14.2496 214.894 16.3979C214.894 18.5462 213.743 20.1737 211.874 20.1737C209.919 20.1737 208.811 18.5896 208.811 16.4413Z" fill="#17A615"/>
</svg>
