<svg width="101" height="16" viewBox="0 0 101 16" fill="none" xmlns="http://www.w3.org/2000/svg">
<path d="M30.4051 0.472046C30.5207 0.472046 30.6139 0.56524 30.6139 0.680871V9.52751C30.6139 13.7222 27.9898 15.7863 24.5269 15.7863C21.064 15.7863 18.4399 13.7213 18.4399 9.52751V0.680871C18.4399 0.56524 18.5331 0.472046 18.6487 0.472046H20.7042C20.8198 0.472046 20.913 0.56524 20.913 0.680871V9.3765C20.913 12.3018 22.4404 13.4633 24.5269 13.4633C26.6134 13.4633 28.1408 12.3018 28.1408 9.3765V0.680871C28.1408 0.56524 28.234 0.472046 28.3496 0.472046H30.4051Z" fill="white"/>
<path d="M66.4439 8.0001C66.4223 12.4312 63.0457 15.7862 58.6362 15.7862C54.2267 15.7862 50.8286 12.4312 50.8286 8.0001C50.8286 3.56902 54.2267 0.213989 58.6362 0.213989C63.0457 0.213989 66.4223 3.56902 66.4439 8.0001ZM53.2801 8.0001C53.2801 11.1403 55.5815 13.4632 58.6362 13.4632C61.691 13.4632 63.9708 11.1403 63.9708 8.0001C63.9708 4.85994 61.6694 2.53697 58.6362 2.53697C55.6031 2.53697 53.2801 4.85994 53.2801 8.0001Z" fill="white"/>
<path d="M88.3657 15.5282H86.2369C86.0902 15.5282 85.9892 15.3807 86.0418 15.2443L91.6758 0.692934C91.7224 0.572126 91.8389 0.492737 91.9684 0.492737H94.6322C94.7616 0.492737 94.8773 0.572126 94.9247 0.692934L100.559 15.2443C100.611 15.3815 100.51 15.5282 100.364 15.5282H98.2349C98.1477 15.5282 98.0701 15.4747 98.0399 15.3936L93.4966 3.41285C93.4284 3.23336 93.1739 3.23336 93.1057 3.41285L88.5616 15.3936C88.5305 15.4747 88.4528 15.5282 88.3665 15.5282H88.3657Z" fill="white"/>
<path d="M2.33797 15.5282H0.209148C0.0624518 15.5282 -0.0385104 15.3807 0.0141276 15.2443L5.64812 0.692934C5.69472 0.572126 5.81121 0.492737 5.94065 0.492737H8.60448C8.73391 0.492737 8.84955 0.572126 8.89701 0.692934L14.531 15.2443C14.5836 15.3815 14.4827 15.5282 14.336 15.5282H12.2072C12.12 15.5282 12.0423 15.4747 12.0121 15.3936L7.46888 3.41285C7.40071 3.23336 7.14614 3.23336 7.07797 3.41285L2.53385 15.3936C2.50278 15.4747 2.42512 15.5282 2.33883 15.5282H2.33797Z" fill="white"/>
<path d="M82.3814 15.1908L78.1557 9.79327C80.5399 9.34196 81.9361 7.7309 81.9361 5.26122C81.9361 2.42567 80.0886 0.492737 76.8242 0.492737H70.9296C70.757 0.492737 70.6163 0.633393 70.6163 0.805977C70.6163 1.91396 71.5146 2.81226 72.6226 2.81226H76.5662C78.5422 2.81226 79.4871 3.82188 79.4871 5.2828C79.4871 6.74372 78.563 7.7749 76.5662 7.7749H70.9296C70.757 7.7749 70.6163 7.91556 70.6163 8.08814V15.3203C70.6163 15.4359 70.7095 15.5291 70.8252 15.5291H72.8349C72.9505 15.5291 73.0437 15.4359 73.0437 15.3203V9.92271H75.3632L79.0324 14.711C79.4276 15.2271 80.0403 15.5291 80.69 15.5291H82.2165C82.3909 15.5291 82.4884 15.3289 82.3814 15.1917V15.1908Z" fill="white"/>
<path d="M47.4418 15.1908L43.2161 9.79327C45.6003 9.34196 46.9965 7.7309 46.9965 5.26122C46.9965 2.42567 45.149 0.492737 41.8846 0.492737H35.99C35.8174 0.492737 35.6768 0.633393 35.6768 0.805977C35.6768 1.91396 36.5751 2.81226 37.683 2.81226H41.6266C43.6027 2.81226 44.5476 3.82188 44.5476 5.2828C44.5476 6.74372 43.6234 7.7749 41.6266 7.7749H35.99C35.8174 7.7749 35.6768 7.91556 35.6768 8.08814V15.3203C35.6768 15.4359 35.77 15.5291 35.8856 15.5291H37.8953C38.011 15.5291 38.1041 15.4359 38.1041 15.3203V9.92271H40.4237L44.0928 14.711C44.488 15.2271 45.1007 15.5291 45.7505 15.5291H47.277C47.4513 15.5291 47.5488 15.3289 47.4418 15.1917V15.1908Z" fill="white"/>
</svg>
