<svg width="123" height="71" viewBox="0 0 123 71" fill="none" xmlns="http://www.w3.org/2000/svg">
<path d="M37.0035 6.67871C37.1442 6.67871 37.2576 6.79246 37.2576 6.93358V17.731C37.2576 22.8506 34.064 25.3699 29.8495 25.3699C25.6351 25.3699 22.4414 22.8496 22.4414 17.731V6.93358C22.4414 6.79246 22.5548 6.67871 22.6956 6.67871H25.1971C25.3379 6.67871 25.4513 6.79246 25.4513 6.93358V17.5467C25.4513 21.1171 27.3101 22.5347 29.8495 22.5347C32.3889 22.5347 34.2477 21.1171 34.2477 17.5467V6.93358C34.2477 6.79246 34.3612 6.67871 34.5019 6.67871H37.0035Z" fill="#F8FAFC"/>
<path d="M80.8638 15.8663C80.8375 21.2745 76.7281 25.3694 71.3616 25.3694C65.9951 25.3694 61.8594 21.2745 61.8594 15.8663C61.8594 10.4581 65.9951 6.36328 71.3616 6.36328C76.7281 6.36328 80.8375 10.4581 80.8638 15.8663ZM64.843 15.8663C64.843 19.6989 67.6439 22.5342 71.3616 22.5342C75.0793 22.5342 77.8539 19.6989 77.8539 15.8663C77.8539 12.0337 75.053 9.19851 71.3616 9.19851C67.6701 9.19851 64.843 12.0337 64.843 15.8663Z" fill="#F8FAFC"/>
<path d="M107.545 25.0541H104.954C104.775 25.0541 104.652 24.874 104.716 24.7076L111.573 6.94747C111.63 6.80002 111.772 6.70312 111.929 6.70312H115.171C115.329 6.70312 115.469 6.80002 115.527 6.94747L122.384 24.7076C122.448 24.8751 122.325 25.0541 122.147 25.0541H119.556C119.45 25.0541 119.355 24.9888 119.318 24.8898L113.789 10.2672C113.706 10.0481 113.396 10.0481 113.313 10.2672L107.783 24.8898C107.745 24.9888 107.651 25.0541 107.546 25.0541H107.545Z" fill="#F8FAFC"/>
<path d="M2.84538 25.0541H0.25454C0.0760058 25.0541 -0.0468684 24.874 0.0171937 24.7076L6.87394 6.94747C6.93065 6.80002 7.07243 6.70312 7.22996 6.70312H10.4719C10.6294 6.70312 10.7702 6.80002 10.8279 6.94747L17.6847 24.7076C17.7487 24.8751 17.6259 25.0541 17.4473 25.0541H14.8565C14.7504 25.0541 14.6559 24.9888 14.6192 24.8898L9.08986 10.2672C9.00689 10.0481 8.69708 10.0481 8.61412 10.2672L3.08377 24.8898C3.04597 24.9888 2.95145 25.0541 2.84643 25.0541H2.84538Z" fill="#F8FAFC"/>
<path d="M100.26 24.6423L95.117 18.0545C98.0187 17.5037 99.7179 15.5374 99.7179 12.5231C99.7179 9.0623 97.4694 6.70312 93.4965 6.70312H86.3226C86.1126 6.70312 85.9414 6.8748 85.9414 7.08544C85.9414 8.43775 87.0347 9.53413 88.3831 9.53413H93.1825C95.5875 9.53413 96.7375 10.7664 96.7375 12.5495C96.7375 14.3325 95.6127 15.5911 93.1825 15.5911H86.3226C86.1126 15.5911 85.9414 15.7628 85.9414 15.9734V24.8003C85.9414 24.9414 86.0548 25.0552 86.1956 25.0552H88.6415C88.7822 25.0552 88.8956 24.9414 88.8956 24.8003V18.2125H91.7186L96.184 24.0567C96.665 24.6866 97.4106 25.0552 98.2014 25.0552H100.059C100.271 25.0552 100.39 24.8108 100.26 24.6434V24.6423Z" fill="#F8FAFC"/>
<path d="M57.7403 24.6423L52.5975 18.0545C55.4992 17.5037 57.1984 15.5374 57.1984 12.5231C57.1984 9.0623 54.9499 6.70312 50.977 6.70312H43.8031C43.5931 6.70312 43.4219 6.8748 43.4219 7.08544C43.4219 8.43775 44.5151 9.53413 45.8636 9.53413H50.663C53.068 9.53413 54.2179 10.7664 54.2179 12.5495C54.2179 14.3325 53.0932 15.5911 50.663 15.5911H43.8031C43.5931 15.5911 43.4219 15.7628 43.4219 15.9734V24.8003C43.4219 24.9414 43.5353 25.0552 43.676 25.0552H46.1219C46.2627 25.0552 46.3761 24.9414 46.3761 24.8003V18.2125H49.199L53.6645 24.0567C54.1455 24.6866 54.8911 25.0552 55.6819 25.0552H57.5397C57.7518 25.0552 57.8705 24.8108 57.7403 24.6434V24.6423Z" fill="#F8FAFC"/>
<path fill-rule="evenodd" clip-rule="evenodd" d="M15.8242 43.9664C10.9704 43.9664 6.97002 48.0431 6.97002 53.1545C6.97002 53.21 6.9705 53.2654 6.97144 53.3206C6.98165 53.9193 6.58324 54.4478 6.00608 54.6011C4.08126 55.1123 2.61914 56.9361 2.61914 59.1485C2.61914 61.7771 4.6716 63.8411 7.12247 63.8411H23.0757C26.3276 63.8411 29.0294 61.1061 29.0294 57.65C29.0294 54.9955 27.4272 52.753 25.2073 51.8673C24.814 51.7104 24.5217 51.3711 24.4242 50.958C23.4698 46.9189 19.9588 43.9664 15.8242 43.9664ZM4.39685 52.4101C4.76913 46.2768 9.70984 41.3633 15.8242 41.3633C21.0127 41.3633 25.3599 44.9064 26.7813 49.7229C29.6595 51.1483 31.6251 54.1731 31.6251 57.65C31.6251 62.47 27.8336 66.4442 23.0757 66.4442H7.12247C3.16553 66.4442 0.0234375 63.1409 0.0234375 59.1485C0.0234375 56.1295 1.81369 53.5139 4.39685 52.4101Z" fill="#17A615"/>
<path d="M48.1868 63.652C52.1841 63.652 54.9307 61.3156 55.8626 58.0447L53.7291 57.2577C53.0179 59.6433 51.1542 61.4386 48.1868 61.4386C45.0234 61.4386 42.007 59.1022 42.007 54.5525C42.007 50.0027 45.0234 47.6909 48.1868 47.6909C51.0315 47.6909 52.9443 49.1665 53.6065 51.798L55.8381 51.011C54.9552 47.6418 52.1596 45.4775 48.1868 45.4775C43.8708 45.4775 39.5547 48.7239 39.5547 54.5525C39.5547 60.3811 43.6991 63.652 48.1868 63.652Z" fill="#17A615"/>
<path d="M58.5659 63.2831H60.8711V45.4775H58.5659V63.2831Z" fill="#17A615"/>
<path d="M69.8443 51.0848C66.3129 51.0848 63.8116 53.7655 63.8116 57.3561C63.8116 60.9713 66.3129 63.652 69.8443 63.652C73.3756 63.652 75.877 60.9713 75.877 57.3561C75.877 53.7655 73.3756 51.0848 69.8443 51.0848ZM69.8443 61.5862C67.8824 61.5862 66.1658 60.1106 66.1658 57.3561C66.1658 54.6263 67.8824 53.1507 69.8443 53.1507C71.8061 53.1507 73.5227 54.6263 73.5227 57.3561C73.5227 60.1106 71.8061 61.5862 69.8443 61.5862Z" fill="#17A615"/>
<path d="M86.4804 61.8567C86.4804 62.3486 86.5294 63.0126 86.5785 63.2831H88.7856C88.7365 62.865 88.6629 62.0289 88.6629 61.0943V51.4537H86.3578V58.5858C86.3578 60.3811 85.4259 61.6108 83.5621 61.6108C81.6248 61.6108 80.8891 60.1844 80.8891 58.5612V51.4537H78.5839V58.9055C78.5839 61.5862 80.2515 63.652 82.9981 63.652C84.3714 63.652 85.8428 63.0864 86.4804 61.8567Z" fill="#17A615"/>
<path d="M100.741 61.4878V61.6845C100.741 62.3978 100.815 63.0126 100.864 63.2831H103.095C103.071 63.0864 102.973 62.2256 102.973 61.0943V45.4775H100.692V53.1261C100.3 52.1669 99.1717 51.134 97.0872 51.134C93.7521 51.134 91.4959 53.9868 91.4959 57.3315C91.4959 60.8484 93.6295 63.6028 97.0872 63.6028C98.9265 63.6028 100.177 62.6191 100.741 61.4878ZM93.8502 57.3315C93.8502 54.8968 95.2235 53.1753 97.3325 53.1753C99.4415 53.1753 100.717 54.8476 100.717 57.2823C100.717 59.7171 99.4169 61.5616 97.3079 61.5616C95.1008 61.5616 93.8502 59.7663 93.8502 57.3315Z" fill="#17A615"/>
</svg>
