<svg width="10" height="13" viewBox="0 0 10 13" fill="none" xmlns="http://www.w3.org/2000/svg">
    <g fill="currentColor">
        <path d="M4.33693 8.32794H5.66306C5.83524 8.32794 5.97487 8.46352 5.97487 8.63072V10.473C5.97487 10.6402 5.83524 10.7752 5.66306 10.7752L4.33693 10.7758C4.25428 10.7758 4.17476 10.7436 4.11653 10.687C4.05767 10.6305 4.02512 10.5533 4.02512 10.473V8.6301C4.02512 8.54984 4.05767 8.47323 4.11653 8.41608C4.17476 8.35954 4.25428 8.32794 4.33693 8.32794ZM5.0889 0.25H5.08452C4.88416 0.25 4.68067 0.266417 4.47592 0.300465C2.49924 0.626365 1.16933 2.44673 1.50561 4.3662L1.73853 5.69957L0.436186 5.69896C0.353538 5.69896 0.274647 5.73118 0.215789 5.78773C0.157559 5.84488 0.125 5.92149 0.125 6.00175L0.125 12.6978C0.125 12.7781 0.157558 12.8547 0.215789 12.9112C0.274645 12.9684 0.353538 13 0.436186 13H9.56382C9.73537 13 9.875 12.8644 9.875 12.6972V6.00239C9.875 5.83519 9.73537 5.6996 9.56382 5.6996H3.687L3.39898 4.05375C3.24057 3.14964 3.86732 2.29242 4.79775 2.1391C4.8948 2.12268 4.99122 2.11539 5.0864 2.11539C5.90475 2.11539 6.62855 2.68753 6.77007 3.49739L6.90782 4.28294C6.93349 4.43008 7.06497 4.53466 7.21462 4.53466C7.23153 4.53466 7.24844 4.53345 7.26534 4.53101L8.54702 4.32551C8.71608 4.29754 8.83066 4.14189 8.80249 3.97772C8.80187 3.9759 8.80187 3.97407 8.80124 3.97225L8.66349 3.18488C8.36233 1.46541 6.82643 0.25 5.0889 0.25Z" />
    </g>
</svg>
