<svg fill="none" xmlns="http://www.w3.org/2000/svg" viewBox="0 0 56 56"><g fill="currentColor"><path d="M6.73 22.794a1 1 0 0 0 1.415 0l4.085-4.084a1 1 0 0 1 1.414 0l4.085 4.084a1 1 0 0 0 1.414 0l3.032-3.032a1 1 0 0 0 0-1.414l-4.085-4.084a1 1 0 0 1 0-1.415l4.085-4.084a1 1 0 0 0 0-1.415l-3.032-3.032a1 1 0 0 0-1.415 0l-4.084 4.085a1 1 0 0 1-1.414 0L8.145 4.318a1 1 0 0 0-1.414 0L3.699 7.35a1 1 0 0 0 0 1.415l4.084 4.084a1 1 0 0 1 0 1.415L3.7 18.348a1 1 0 0 0 0 1.414l3.032 3.032ZM45.145 31.053a1 1 0 0 0-1-1H39.86a1 1 0 0 0-1 1v5.856a1 1 0 0 1-1 1h-5.855a1 1 0 0 0-1 1v4.284a1 1 0 0 0 1 1h5.855a1 1 0 0 1 1 1v5.856a1 1 0 0 0 1 1h4.285a1 1 0 0 0 1-1v-5.856a1 1 0 0 1 1-1H52a1 1 0 0 0 1-1v-4.284a1 1 0 0 0-1-1h-5.855a1 1 0 0 1-1-1v-5.856Z"/><path d="M12.937 52.049a10.211 10.211 0 0 0 9.089-14.855l19.976-19.977v8.123h6.285V9.629a3.142 3.142 0 0 0-3.142-3.142H29.434v6.284h8.122L17.58 32.748a10.212 10.212 0 1 0-4.643 19.3Zm0-14.14a3.928 3.928 0 1 1 0 7.855 3.928 3.928 0 0 1 0-7.855Z"/></g></svg>