<svg fill="none" xmlns="http://www.w3.org/2000/svg" viewBox="0 0 56 56"><g fill="currentColor"><path d="M18 27a3 3 0 1 0 0-6 3 3 0 0 0 0 6ZM37 27a3 3 0 1 0 0-6 3 3 0 0 0 0 6ZM28.718 39.202a5.696 5.696 0 0 0 4.479-4.108 5.389 5.389 0 0 0-.177-3.408.805.805 0 0 0-.725-.46h-9.08a.806.806 0 0 0-.733.46 5.412 5.412 0 0 0-.37 1.957 5.638 5.638 0 0 0 6.606 5.56Z"/><path d="M5.75 52.978a2.416 2.416 0 0 0 1.95-.693l5.872-5.872a4.36 4.36 0 0 0 0-6.172L7.7 34.368a2.417 2.417 0 0 0-1.7-.725h-.21a2.416 2.416 0 0 0-1.78 1.04 2.546 2.546 0 0 0 .411 3.222l5.406 5.406-5.478 5.478a2.457 2.457 0 0 0-.387 3.078 2.418 2.418 0 0 0 1.789 1.111ZM18.89 50.562a2.417 2.417 0 0 0 2.416 2.416h7.25a2.417 2.417 0 0 0 0-4.833h-7.25a2.417 2.417 0 0 0-2.417 2.416ZM52.645 26.014a24.974 24.974 0 0 0-49.627-1.53 2.417 2.417 0 0 0 2.361 2.714h.089a2.417 2.417 0 0 0 2.36-2.102A20.068 20.068 0 0 1 27.751 7.863c.773 0 1.545.043 2.312.13a20.262 20.262 0 0 1 17.652 17.296 20.045 20.045 0 0 1-9.128 19.681 2.467 2.467 0 0 0-1.168 2.063 2.416 2.416 0 0 0 1.265 2.127 2.37 2.37 0 0 0 2.416-.073 24.974 24.974 0 0 0 11.545-23.073Z" stroke="currentColor" stroke-width="2"/></g></svg>