<svg width="100%" height="auto" viewBox="0 0 202 26" fill="none" xmlns="http://www.w3.org/2000/svg">
<path d="M30.4052 5.47205C30.5208 5.47205 30.614 5.56524 30.614 5.68087V14.5275C30.614 18.7222 27.9899 20.7863 24.527 20.7863C21.0641 20.7863 18.4399 18.7213 18.4399 14.5275V5.68087C18.4399 5.56524 18.5331 5.47205 18.6488 5.47205H20.7042C20.8199 5.47205 20.9131 5.56524 20.9131 5.68087V14.3765C20.9131 17.3018 22.4404 18.4633 24.527 18.4633C26.6135 18.4633 28.1409 17.3018 28.1409 14.3765V5.68087C28.1409 5.56524 28.2341 5.47205 28.3497 5.47205H30.4052Z" fill="white"/>
<path d="M66.444 13.0001C66.4224 17.4312 63.0458 20.7862 58.6363 20.7862C54.2268 20.7862 50.8286 17.4312 50.8286 13.0001C50.8286 8.56902 54.2268 5.21399 58.6363 5.21399C63.0458 5.21399 66.4224 8.56902 66.444 13.0001ZM53.2802 13.0001C53.2802 16.1403 55.5816 18.4632 58.6363 18.4632C61.691 18.4632 63.9709 16.1403 63.9709 13.0001C63.9709 9.85994 61.6695 7.53697 58.6363 7.53697C55.6031 7.53697 53.2802 9.85994 53.2802 13.0001Z" fill="white"/>
<path d="M88.3656 20.5282H86.2367C86.09 20.5282 85.9891 20.3806 86.0417 20.2443L91.6757 5.69287C91.7223 5.57206 91.8388 5.49268 91.9682 5.49268H94.6321C94.7615 5.49268 94.8771 5.57206 94.9246 5.69287L100.559 20.2443C100.611 20.3815 100.51 20.5282 100.364 20.5282H98.2348C98.1476 20.5282 98.0699 20.4747 98.0397 20.3935L93.4965 8.41279C93.4283 8.2333 93.1737 8.2333 93.1056 8.41279L88.5614 20.3935C88.5304 20.4747 88.4527 20.5282 88.3664 20.5282H88.3656Z" fill="white"/>
<path d="M2.33797 20.5282H0.209148C0.0624518 20.5282 -0.0385104 20.3806 0.0141276 20.2443L5.64812 5.69287C5.69472 5.57206 5.81121 5.49268 5.94065 5.49268H8.60448C8.73391 5.49268 8.84955 5.57206 8.89701 5.69287L14.531 20.2443C14.5836 20.3815 14.4827 20.5282 14.336 20.5282H12.2072C12.12 20.5282 12.0423 20.4747 12.0121 20.3935L7.46888 8.41279C7.40071 8.2333 7.14614 8.2333 7.07797 8.41279L2.53385 20.3935C2.50278 20.4747 2.42512 20.5282 2.33883 20.5282H2.33797Z" fill="white"/>
<path d="M82.3812 20.1908L78.1555 14.7932C80.5398 14.3419 81.936 12.7308 81.936 10.2612C81.936 7.42561 80.0885 5.49268 76.8241 5.49268H70.9295C70.7569 5.49268 70.6162 5.63333 70.6162 5.80592C70.6162 6.9139 71.5145 7.8122 72.6225 7.8122H76.566C78.5421 7.8122 79.487 8.82182 79.487 10.2827C79.487 11.7437 78.5628 12.7748 76.566 12.7748H70.9295C70.7569 12.7748 70.6162 12.9155 70.6162 13.0881V20.3202C70.6162 20.4358 70.7094 20.529 70.825 20.529H72.8348C72.9504 20.529 73.0436 20.4358 73.0436 20.3202V14.9226H75.3631L79.0323 19.711C79.4275 20.227 80.0401 20.529 80.6899 20.529H82.2164C82.3907 20.529 82.4882 20.3288 82.3812 20.1916V20.1908Z" fill="white"/>
<path d="M47.4418 20.1908L43.2161 14.7932C45.6003 14.3419 46.9965 12.7308 46.9965 10.2612C46.9965 7.42561 45.149 5.49268 41.8846 5.49268H35.99C35.8174 5.49268 35.6768 5.63333 35.6768 5.80592C35.6768 6.9139 36.5751 7.8122 37.683 7.8122H41.6266C43.6027 7.8122 44.5476 8.82182 44.5476 10.2827C44.5476 11.7437 43.6234 12.7748 41.6266 12.7748H35.99C35.8174 12.7748 35.6768 12.9155 35.6768 13.0881V20.3202C35.6768 20.4358 35.77 20.529 35.8856 20.529H37.8953C38.011 20.529 38.1041 20.4358 38.1041 20.3202V14.9226H40.4237L44.0928 19.711C44.488 20.227 45.1007 20.529 45.7505 20.529H47.277C47.4513 20.529 47.5488 20.3288 47.4418 20.1916V20.1908Z" fill="white"/>
<path d="M108.233 2.59998H108.883V23.4H108.233V2.59998Z" fill="#64748B"/>
<path fill-rule="evenodd" clip-rule="evenodd" d="M129.543 4.31641C125.555 4.31641 122.268 7.65659 122.268 11.8444C122.268 11.8899 122.269 11.9353 122.269 11.9806C122.278 12.4711 121.95 12.9041 121.476 13.0297C119.895 13.4486 118.693 14.9429 118.693 16.7556C118.693 18.9092 120.38 20.6003 122.393 20.6003H135.502C138.174 20.6003 140.394 18.3595 140.394 15.5278C140.394 13.3528 139.077 11.5155 137.253 10.7898C136.93 10.6613 136.69 10.3832 136.61 10.0449C135.825 6.73548 132.941 4.31641 129.543 4.31641ZM120.154 11.2346C120.46 6.20941 124.519 2.18359 129.543 2.18359C133.807 2.18359 137.379 5.08654 138.547 9.03282C140.911 10.2007 142.526 12.6791 142.526 15.5278C142.526 19.4769 139.411 22.7331 135.502 22.7331H122.393C119.142 22.7331 116.56 20.0266 116.56 16.7556C116.56 14.282 118.031 12.139 120.154 11.2346Z" fill="#5DEB5A"/>
<path d="M156.136 20.4454C159.421 20.4454 161.678 18.5312 162.443 15.8512L160.69 15.2064C160.106 17.161 158.574 18.6319 156.136 18.6319C153.537 18.6319 151.058 16.7177 151.058 12.9899C151.058 9.26217 153.537 7.36807 156.136 7.36807C158.474 7.36807 160.045 8.57707 160.589 10.7331L162.423 10.0883C161.698 7.32777 159.401 5.55457 156.136 5.55457C152.59 5.55457 149.043 8.21437 149.043 12.9899C149.043 17.7655 152.449 20.4454 156.136 20.4454Z" fill="#5DEB5A"/>
<path d="M164.664 20.1432H166.559V5.55457H164.664V20.1432Z" fill="#5DEB5A"/>
<path d="M173.932 10.1488C171.03 10.1488 168.975 12.3451 168.975 15.287C168.975 18.2491 171.03 20.4454 173.932 20.4454C176.833 20.4454 178.888 18.2491 178.888 15.287C178.888 12.3451 176.833 10.1488 173.932 10.1488ZM173.932 18.7528C172.32 18.7528 170.909 17.5438 170.909 15.287C170.909 13.0504 172.32 11.8414 173.932 11.8414C175.544 11.8414 176.954 13.0504 176.954 15.287C176.954 17.5438 175.544 18.7528 173.932 18.7528Z" fill="#5DEB5A"/>
<path d="M187.601 18.9745C187.601 19.3775 187.641 19.9215 187.682 20.1432H189.495C189.455 19.8006 189.394 19.1155 189.394 18.3498V10.451H187.5V16.2945C187.5 17.7655 186.735 18.773 185.203 18.773C183.611 18.773 183.007 17.6043 183.007 16.2744V10.451H181.113V16.5565C181.113 18.7528 182.483 20.4454 184.74 20.4454C185.868 20.4454 187.077 19.982 187.601 18.9745Z" fill="#5DEB5A"/>
<path d="M199.319 18.6722V18.8334C199.319 19.4178 199.379 19.9215 199.419 20.1432H201.253C201.233 19.982 201.152 19.2767 201.152 18.3498V5.55457H199.278V11.8212C198.956 11.0354 198.029 10.1891 196.316 10.1891C193.576 10.1891 191.722 12.5265 191.722 15.2669C191.722 18.1483 193.475 20.4051 196.316 20.4051C197.828 20.4051 198.855 19.5991 199.319 18.6722ZM193.657 15.2669C193.657 13.272 194.785 11.8615 196.518 11.8615C198.251 11.8615 199.299 13.2317 199.299 15.2266C199.299 17.2214 198.231 18.7327 196.498 18.7327C194.684 18.7327 193.657 17.2617 193.657 15.2669Z" fill="#5DEB5A"/>
</svg>
