<svg width="36" height="26" fill="none" xmlns="http://www.w3.org/2000/svg"><path d="M26.71 7.08v-.297c0-2.066-1.572-3.893-4.43-5.144C19.869.582 16.694 0 13.356 0 10.016 0 6.84.582 4.429 1.64 1.572 2.89 0 4.716 0 6.782v5.652c0 2.066 1.572 3.893 4.429 5.143a19.517 19.517 0 0 0 4.861 1.34v.3c0 2.065 1.572 3.892 4.43 5.143C16.131 25.418 19.305 26 22.644 26c3.339 0 6.514-.582 8.926-1.64C34.428 23.11 36 21.284 36 19.218v-5.652c0-3.128-3.671-5.64-9.29-6.484Zm5.806 6.485c0 1.095-3.16 3.177-8.972 3.375 2.052-1.199 3.166-2.767 3.166-4.505v-1.916c3.756.665 5.806 2.125 5.806 3.046Zm-17.51 2.209a25.705 25.705 0 0 1-4.554-.115v-2.245a27.87 27.87 0 0 0 5.806 0v2.245a23.497 23.497 0 0 1-1.253.115Zm8.22-4.309v.97c0 .675-1.202 1.725-3.484 2.478v-2.12a17.047 17.047 0 0 0 2.539-.865c.333-.147.648-.3.945-.463Zm-9.871-8.074c6.387 0 9.87 2.24 9.87 3.392 0 1.151-3.483 3.39-9.87 3.39-6.387 0-9.871-2.239-9.871-3.39 0-1.152 3.484-3.392 9.87-3.392Zm-9.871 9.044v-.97c.298.162.613.315.945.461.82.355 1.67.644 2.539.866v2.12c-2.282-.752-3.484-1.802-3.484-2.477Zm9.29 6.782h.58c.527 0 1.048-.015 1.564-.045.43.148.878.283 1.34.404v2.12c-2.282-.753-3.484-1.803-3.484-2.479Zm6.968 3.225v-2.244a27.87 27.87 0 0 0 5.806-.001v2.245a25.361 25.361 0 0 1-5.806 0Zm9.29-.746v-2.12a17.046 17.046 0 0 0 2.54-.866c.332-.145.647-.299.944-.46v.967c0 .676-1.202 1.726-3.484 2.479Z" fill="#0B530A"/></svg>