<svg width="20" height="20" fill="none" xmlns="http://www.w3.org/2000/svg"><path d="M19.337 13.625 17.03 4.532a1.256 1.256 0 0 0-1.016-.928l-2.817-.463a1.267 1.267 0 0 0-1.426.928l-.017.067a.314.314 0 0 0 .256.385c.646.095 1.284.241 1.907.439a.64.64 0 0 1 .439.758.625.625 0 0 1-.796.44 12.14 12.14 0 0 0-7.094-.008.642.642 0 0 1-.803-.375.625.625 0 0 1 .397-.807c.63-.201 1.276-.35 1.93-.447a.313.313 0 0 0 .256-.385l-.016-.067a1.266 1.266 0 0 0-1.428-.927l-2.819.462a1.256 1.256 0 0 0-1.016.928L.663 13.625a1.245 1.245 0 0 0 .708 1.446l5.234 2.32a1.264 1.264 0 0 0 1.696-.71l.273-.738a.312.312 0 0 0-.256-.418 12.355 12.355 0 0 1-2.236-.485.64.64 0 0 1-.439-.755.625.625 0 0 1 .797-.442c2.32.71 4.8.71 7.12 0a.626.626 0 0 1 .795.441.64.64 0 0 1-.438.756 12.33 12.33 0 0 1-2.236.485.312.312 0 0 0-.255.418l.272.738a1.264 1.264 0 0 0 1.696.71l5.235-2.32a1.246 1.246 0 0 0 .707-1.446Zm-12.15-1.75a.938.938 0 1 1 0-1.875.938.938 0 0 1 0 1.876Zm5.625 0a.938.938 0 1 1 0-1.875.938.938 0 0 1 0 1.876Z" fill="#CBD5E1"/></svg>