<svg width="25" height="24" fill="none" xmlns="http://www.w3.org/2000/svg"><g clip-path="url(#a)"><path d="M.502 8a8 8 0 0 1 8-8h8a8 8 0 0 1 8 8v8a8 8 0 0 1-8 8h-8a8 8 0 0 1-8-8V8Z" fill="#627EEA"/><path d="M12.498 3v6.652l5.623 2.513L12.498 3Z" fill="#fff" fill-opacity=".602"/><path d="m12.498 3-5.623 9.165 5.623-2.512V3Z" fill="#fff"/><path d="M12.498 16.476v4.52l5.627-7.784-5.627 3.264Z" fill="#fff" fill-opacity=".602"/><path d="M12.498 20.996v-4.52l-5.623-3.264 5.623 7.784Z" fill="#fff"/><path d="m12.498 15.43 5.623-3.265-5.623-2.51v5.775Z" fill="#fff" fill-opacity=".2"/><path d="m6.875 12.165 5.623 3.265V9.654l-5.623 2.511Z" fill="#fff" fill-opacity=".602"/></g><defs><clipPath id="a"><path fill="#fff" transform="translate(.5)" d="M0 0h24v24H0z"/></clipPath></defs></svg>