<svg width="25" height="24" fill="none" xmlns="http://www.w3.org/2000/svg"><g clip-path="url(#a)"><path d="M.502 8a8 8 0 0 1 8-8h8a8 8 0 0 1 8 8v8a8 8 0 0 1-8 8h-8a8 8 0 0 1-8-8V8Z" fill="#041417"/><path d="m16.132 6.61-2.509 3.724a.267.267 0 0 0 .084.376.267.267 0 0 0 .312-.027l2.47-2.141a.1.1 0 0 1 .166.076v6.703a.099.099 0 0 1-.126.097.1.1 0 0 1-.05-.032L9.014 6.455a1.279 1.279 0 0 0-.976-.453h-.26A1.28 1.28 0 0 0 6.5 7.279v9.442a1.28 1.28 0 0 0 1.427 1.27 1.278 1.278 0 0 0 .941-.6l2.509-3.725a.267.267 0 0 0-.083-.377.266.266 0 0 0-.313.027l-2.47 2.141a.1.1 0 0 1-.166-.075V8.677a.1.1 0 0 1 .066-.095.1.1 0 0 1 .11.03l7.463 8.934a1.277 1.277 0 0 0 .976.453h.26a1.28 1.28 0 0 0 1.28-1.278V7.279a1.28 1.28 0 0 0-1.427-1.27 1.277 1.277 0 0 0-.941.6Z" fill="#fff"/></g><defs><clipPath id="a"><path fill="#fff" transform="translate(.5)" d="M0 0h24v24H0z"/></clipPath></defs></svg>