<svg width="25" height="24" fill="none" xmlns="http://www.w3.org/2000/svg"><g clip-path="url(#a)"><g clip-path="url(#b)"><mask id="c" style="mask-type:luminance" maskUnits="userSpaceOnUse" x="-1" y="-1" width="27" height="27"><path d="M26-1H-1v27h27V-1Z" fill="#fff"/></mask><g mask="url(#c)"><path d="M26-1H-1v27h27V-1Z" fill="#FDFDFC"/><path d="M12.5-1H-1v13.5h13.5V-1ZM26 12.5H12.5V26H26V12.5Z" fill="#4DD092"/><path d="m16.586 6.436-2.823 4.19a.3.3 0 0 0 .095.423.3.3 0 0 0 .351-.03l2.779-2.41a.112.112 0 0 1 .169.025c.012.018.018.04.017.062v7.54a.112.112 0 0 1-.198.073L8.578 6.262a1.44 1.44 0 0 0-1.098-.51h-.292A1.432 1.432 0 0 0 5.75 7.19v10.622a1.44 1.44 0 0 0 1.606 1.43 1.438 1.438 0 0 0 1.058-.677l2.823-4.19a.3.3 0 0 0-.094-.424.3.3 0 0 0-.352.03l-2.779 2.41a.111.111 0 0 1-.134.01.112.112 0 0 1-.052-.096V8.761a.113.113 0 0 1 .074-.106.112.112 0 0 1 .124.034l8.396 10.05a1.436 1.436 0 0 0 1.097.51h.293a1.44 1.44 0 0 0 1.44-1.438V7.189a1.44 1.44 0 0 0-1.606-1.43 1.437 1.437 0 0 0-1.058.677Z" fill="#1C2024"/></g></g></g><defs><clipPath id="a"><rect x=".5" width="24" height="24" rx="8" fill="#fff"/></clipPath><clipPath id="b"><path fill="#fff" transform="translate(-1 -1)" d="M0 0h27v27H0z"/></clipPath></defs></svg>