<svg width="123" height="71" viewBox="0 0 123 71" fill="none" xmlns="http://www.w3.org/2000/svg">
<path d="M37.0035 6.67871C37.1442 6.67871 37.2576 6.79246 37.2576 6.93358V17.731C37.2576 22.8506 34.064 25.3699 29.8495 25.3699C25.6351 25.3699 22.4414 22.8496 22.4414 17.731V6.93358C22.4414 6.79246 22.5548 6.67871 22.6956 6.67871H25.1971C25.3379 6.67871 25.4513 6.79246 25.4513 6.93358V17.5467C25.4513 21.1171 27.3101 22.5347 29.8495 22.5347C32.3889 22.5347 34.2477 21.1171 34.2477 17.5467V6.93358C34.2477 6.79246 34.3612 6.67871 34.5019 6.67871H37.0035Z" fill="#0F172A"/>
<path d="M80.8638 15.8663C80.8375 21.2745 76.7281 25.3694 71.3616 25.3694C65.9951 25.3694 61.8594 21.2745 61.8594 15.8663C61.8594 10.4581 65.9951 6.36328 71.3616 6.36328C76.7281 6.36328 80.8375 10.4581 80.8638 15.8663ZM64.843 15.8663C64.843 19.6989 67.6439 22.5342 71.3616 22.5342C75.0793 22.5342 77.8539 19.6989 77.8539 15.8663C77.8539 12.0337 75.053 9.19851 71.3616 9.19851C67.6701 9.19851 64.843 12.0337 64.843 15.8663Z" fill="#0F172A"/>
<path d="M107.545 25.0541H104.954C104.775 25.0541 104.652 24.874 104.716 24.7076L111.573 6.94747C111.63 6.80002 111.772 6.70312 111.929 6.70312H115.171C115.329 6.70312 115.469 6.80002 115.527 6.94747L122.384 24.7076C122.448 24.8751 122.325 25.0541 122.147 25.0541H119.556C119.45 25.0541 119.355 24.9888 119.318 24.8898L113.789 10.2672C113.706 10.0481 113.396 10.0481 113.313 10.2672L107.783 24.8898C107.745 24.9888 107.651 25.0541 107.546 25.0541H107.545Z" fill="#0F172A"/>
<path d="M2.84538 25.0541H0.25454C0.0760058 25.0541 -0.0468684 24.874 0.0171937 24.7076L6.87394 6.94747C6.93065 6.80002 7.07243 6.70312 7.22996 6.70312H10.4719C10.6294 6.70312 10.7702 6.80002 10.8279 6.94747L17.6847 24.7076C17.7487 24.8751 17.6259 25.0541 17.4473 25.0541H14.8565C14.7504 25.0541 14.6559 24.9888 14.6192 24.8898L9.08986 10.2672C9.00689 10.0481 8.69708 10.0481 8.61412 10.2672L3.08377 24.8898C3.04597 24.9888 2.95145 25.0541 2.84643 25.0541H2.84538Z" fill="#0F172A"/>
<path d="M100.26 24.6423L95.117 18.0545C98.0187 17.5037 99.7179 15.5374 99.7179 12.5231C99.7179 9.0623 97.4694 6.70312 93.4965 6.70312H86.3226C86.1126 6.70312 85.9414 6.8748 85.9414 7.08544C85.9414 8.43775 87.0347 9.53413 88.3831 9.53413H93.1825C95.5875 9.53413 96.7375 10.7664 96.7375 12.5495C96.7375 14.3325 95.6127 15.5911 93.1825 15.5911H86.3226C86.1126 15.5911 85.9414 15.7628 85.9414 15.9734V24.8003C85.9414 24.9414 86.0548 25.0552 86.1956 25.0552H88.6415C88.7822 25.0552 88.8956 24.9414 88.8956 24.8003V18.2125H91.7186L96.184 24.0567C96.665 24.6866 97.4106 25.0552 98.2014 25.0552H100.059C100.271 25.0552 100.39 24.8108 100.26 24.6434V24.6423Z" fill="#0F172A"/>
<path d="M57.7383 24.6423L52.5955 18.0545C55.4972 17.5037 57.1964 15.5374 57.1964 12.5231C57.1964 9.0623 54.948 6.70312 50.9751 6.70312H43.8011C43.5911 6.70312 43.4199 6.8748 43.4199 7.08544C43.4199 8.43775 44.5132 9.53413 45.8616 9.53413H50.661C53.066 9.53413 54.216 10.7664 54.216 12.5495C54.216 14.3325 53.0912 15.5911 50.661 15.5911H43.8011C43.5911 15.5911 43.4199 15.7628 43.4199 15.9734V24.8003C43.4199 24.9414 43.5333 25.0552 43.6741 25.0552H46.12C46.2607 25.0552 46.3741 24.9414 46.3741 24.8003V18.2125H49.1971L53.6625 24.0567C54.1435 24.6866 54.8891 25.0552 55.6799 25.0552H57.5377C57.7499 25.0552 57.8686 24.8108 57.7383 24.6434V24.6423Z" fill="#0F172A"/>
<path fill-rule="evenodd" clip-rule="evenodd" d="M15.8223 43.9664C10.9685 43.9664 6.96807 48.0431 6.96807 53.1545C6.96807 53.21 6.96854 53.2654 6.96949 53.3206C6.97969 53.9193 6.58129 54.4478 6.00412 54.6011C4.07931 55.1123 2.61718 56.9361 2.61718 59.1485C2.61718 61.7771 4.66964 63.8411 7.12052 63.8411H23.0738C26.3256 63.8411 29.0274 61.1061 29.0274 57.65C29.0274 54.9955 27.4252 52.753 25.2053 51.8673C24.8121 51.7104 24.5198 51.3711 24.4222 50.958C23.4678 46.9189 19.9568 43.9664 15.8223 43.9664ZM4.3949 52.4101C4.76717 46.2768 9.70789 41.3633 15.8223 41.3633C21.0107 41.3633 25.358 44.9064 26.7794 49.7229C29.6575 51.1483 31.6231 54.1731 31.6231 57.65C31.6231 62.47 27.8317 66.4442 23.0738 66.4442H7.12052C3.16358 66.4442 0.0214844 63.1409 0.0214844 59.1485C0.0214844 56.1295 1.81174 53.5139 4.3949 52.4101Z" fill="#17A615"/>
<path d="M48.1849 63.652C52.1822 63.652 54.9288 61.3156 55.8607 58.0447L53.7271 57.2577C53.016 59.6433 51.1522 61.4386 48.1849 61.4386C45.0214 61.4386 42.0051 59.1022 42.0051 54.5525C42.0051 50.0027 45.0214 47.6909 48.1849 47.6909C51.0296 47.6909 52.9424 49.1665 53.6045 51.798L55.8361 51.011C54.9533 47.6418 52.1576 45.4775 48.1849 45.4775C43.8688 45.4775 39.5527 48.7239 39.5527 54.5525C39.5527 60.3811 43.6972 63.652 48.1849 63.652Z" fill="#17A615"/>
<path d="M58.5639 63.2831H60.8691V45.4775H58.5639V63.2831Z" fill="#17A615"/>
<path d="M69.8423 51.0848C66.311 51.0848 63.8096 53.7655 63.8096 57.3561C63.8096 60.9713 66.311 63.652 69.8423 63.652C73.3737 63.652 75.875 60.9713 75.875 57.3561C75.875 53.7655 73.3737 51.0848 69.8423 51.0848ZM69.8423 61.5862C67.8805 61.5862 66.1638 60.1106 66.1638 57.3561C66.1638 54.6263 67.8805 53.1507 69.8423 53.1507C71.8042 53.1507 73.5208 54.6263 73.5208 57.3561C73.5208 60.1106 71.8042 61.5862 69.8423 61.5862Z" fill="#17A615"/>
<path d="M86.4784 61.8567C86.4784 62.3486 86.5275 63.0126 86.5765 63.2831H88.7836C88.7346 62.865 88.661 62.0289 88.661 61.0943V51.4537H86.3558V58.5858C86.3558 60.3811 85.4239 61.6108 83.5602 61.6108C81.6228 61.6108 80.8871 60.1844 80.8871 58.5612V51.4537H78.582V58.9055C78.582 61.5862 80.2495 63.652 82.9961 63.652C84.3694 63.652 85.8408 63.0864 86.4784 61.8567Z" fill="#17A615"/>
<path d="M100.739 61.4878V61.6845C100.739 62.3978 100.813 63.0126 100.862 63.2831H103.093C103.069 63.0864 102.971 62.2256 102.971 61.0943V45.4775H100.69V53.1261C100.298 52.1669 99.1697 51.134 97.0853 51.134C93.7501 51.134 91.494 53.9868 91.494 57.3315C91.494 60.8484 93.6275 63.6028 97.0853 63.6028C98.9245 63.6028 100.175 62.6191 100.739 61.4878ZM93.8482 57.3315C93.8482 54.8968 95.2215 53.1753 97.3305 53.1753C99.4395 53.1753 100.715 54.8476 100.715 57.2823C100.715 59.7171 99.415 61.5616 97.306 61.5616C95.0989 61.5616 93.8482 59.7663 93.8482 57.3315Z" fill="#17A615"/>
</svg>
