<svg width="186" height="24" viewBox="0 0 186 24" fill="none" xmlns="http://www.w3.org/2000/svg">
<path d="M28.0994 5.05078C28.2063 5.05078 28.2924 5.13681 28.2924 5.24354V13.4097C28.2924 17.2816 25.8671 19.187 22.6667 19.187C19.4663 19.187 17.041 17.2809 17.041 13.4097V5.24354C17.041 5.13681 17.1271 5.05078 17.234 5.05078H19.1337C19.2406 5.05078 19.3267 5.13681 19.3267 5.24354V13.2703C19.3267 15.9705 20.7383 17.0427 22.6667 17.0427C24.5951 17.0427 26.0067 15.9705 26.0067 13.2703V5.24354C26.0067 5.13681 26.0928 5.05078 26.1997 5.05078H28.0994Z" fill="white"/>
<path d="M61.4084 12.0002C61.3885 16.0904 58.2678 19.1874 54.1925 19.1874C50.1172 19.1874 46.9766 16.0904 46.9766 12.0002C46.9766 7.90994 50.1172 4.81299 54.1925 4.81299C58.2678 4.81299 61.3885 7.90994 61.4084 12.0002ZM49.2423 12.0002C49.2423 14.8988 51.3693 17.0431 54.1925 17.0431C57.0157 17.0431 59.1227 14.8988 59.1227 12.0002C59.1227 9.10156 56.9958 6.95727 54.1925 6.95727C51.3892 6.95727 49.2423 9.10156 49.2423 12.0002Z" fill="white"/>
<path d="M81.6686 18.9492H79.7011C79.5655 18.9492 79.4722 18.813 79.5209 18.6872L84.7279 5.25511C84.7709 5.14359 84.8786 5.07031 84.9982 5.07031H87.4602C87.5798 5.07031 87.6867 5.14359 87.7305 5.25511L92.9375 18.6872C92.9861 18.8138 92.8928 18.9492 92.7573 18.9492H90.7898C90.7092 18.9492 90.6375 18.8998 90.6096 18.825L86.4106 7.7658C86.3476 7.60012 86.1123 7.60012 86.0493 7.7658L81.8496 18.825C81.8209 18.8998 81.7491 18.9492 81.6694 18.9492H81.6686Z" fill="white"/>
<path d="M2.16077 18.9492H0.193297C0.0577186 18.9492 -0.0355917 18.813 0.0130568 18.6872L5.22005 5.25511C5.26311 5.14359 5.37078 5.07031 5.4904 5.07031H7.95234C8.07197 5.07031 8.17884 5.14359 8.2227 5.25511L13.4297 18.6872C13.4783 18.8138 13.385 18.9492 13.2495 18.9492H11.282C11.2014 18.9492 11.1296 18.8998 11.1017 18.825L6.90281 7.7658C6.83981 7.60012 6.60454 7.60012 6.54153 7.7658L2.34181 18.825C2.3131 18.8998 2.24132 18.9492 2.16157 18.9492H2.16077Z" fill="white"/>
<path d="M76.139 18.6378L72.2335 13.6554C74.4371 13.2388 75.7275 11.7517 75.7275 9.47199C75.7275 6.85456 74.02 5.07031 71.003 5.07031H65.5551C65.3956 5.07031 65.2656 5.20015 65.2656 5.35946C65.2656 6.38221 66.0958 7.21141 67.1199 7.21141H70.7645C72.5908 7.21141 73.4641 8.14336 73.4641 9.49191C73.4641 10.8404 72.61 11.7923 70.7645 11.7923H65.5551C65.3956 11.7923 65.2656 11.9221 65.2656 12.0815V18.7573C65.2656 18.864 65.3518 18.95 65.4586 18.95H67.316C67.4229 18.95 67.509 18.864 67.509 18.7573V13.7749H69.6528L73.0438 18.1949C73.4091 18.6712 73.9753 18.95 74.5758 18.95H75.9867C76.1478 18.95 76.2379 18.7652 76.139 18.6386V18.6378Z" fill="white"/>
<path d="M43.846 18.6378L39.9406 13.6554C42.1441 13.2388 43.4345 11.7517 43.4345 9.47199C43.4345 6.85456 41.727 5.07031 38.71 5.07031H33.2622C33.1027 5.07031 32.9727 5.20015 32.9727 5.35946C32.9727 6.38221 33.8029 7.21141 34.8269 7.21141H38.4715C40.2979 7.21141 41.1711 8.14336 41.1711 9.49191C41.1711 10.8404 40.317 11.7923 38.4715 11.7923H33.2622C33.1027 11.7923 32.9727 11.9221 32.9727 12.0815V18.7573C32.9727 18.864 33.0588 18.95 33.1657 18.95H35.0231C35.1299 18.95 35.2161 18.864 35.2161 18.7573V13.7749H37.3598L40.7508 18.1949C41.1161 18.6712 41.6823 18.95 42.2829 18.95H43.6937C43.8548 18.95 43.9449 18.7652 43.846 18.6386V18.6378Z" fill="white"/>
<path d="M100.029 2.3999H100.63V21.5999H100.029V2.3999Z" fill="#64748B"/>
<path fill-rule="evenodd" clip-rule="evenodd" d="M119.726 3.98437C116.04 3.98437 113.002 7.06762 113.002 10.9333C113.002 10.9753 113.002 11.0172 113.003 11.059C113.011 11.5118 112.708 11.9114 112.27 12.0274C110.808 12.4141 109.698 13.7934 109.698 15.4667C109.698 17.4546 111.256 19.0156 113.118 19.0156H125.232C127.702 19.0156 129.754 16.9472 129.754 14.3333C129.754 12.3257 128.537 10.6297 126.851 9.95985C126.552 9.84118 126.33 9.58453 126.256 9.27217C125.532 6.21736 122.865 3.98437 119.726 3.98437ZM111.048 10.3704C111.33 5.73176 115.082 2.01562 119.726 2.01562C123.666 2.01562 126.967 4.69527 128.046 8.33799C130.232 9.41607 131.725 11.7037 131.725 14.3333C131.725 17.9787 128.846 20.9844 125.232 20.9844H113.118C110.113 20.9844 107.727 18.4861 107.727 15.4667C107.727 13.1834 109.086 11.2052 111.048 10.3704Z" fill="#5DEB5A"/>
<path d="M144.303 18.8728C147.339 18.8728 149.425 17.1058 150.132 14.632L148.512 14.0368C147.972 15.841 146.557 17.1988 144.303 17.1988C141.901 17.1988 139.61 15.4318 139.61 11.9908C139.61 8.54984 141.901 6.80144 144.303 6.80144C146.464 6.80144 147.916 7.91744 148.419 9.90764L150.114 9.31244C149.443 6.76424 147.32 5.12744 144.303 5.12744C141.026 5.12744 137.748 7.58264 137.748 11.9908C137.748 16.399 140.895 18.8728 144.303 18.8728Z" fill="#5DEB5A"/>
<path d="M152.185 18.5938H153.936V5.12744H152.185V18.5938Z" fill="#5DEB5A"/>
<path d="M160.75 9.36824C158.068 9.36824 156.169 11.3956 156.169 14.1112C156.169 16.8454 158.068 18.8728 160.75 18.8728C163.432 18.8728 165.331 16.8454 165.331 14.1112C165.331 11.3956 163.432 9.36824 160.75 9.36824ZM160.75 17.3104C159.26 17.3104 157.956 16.1944 157.956 14.1112C157.956 12.0466 159.26 10.9306 160.75 10.9306C162.24 10.9306 163.543 12.0466 163.543 14.1112C163.543 16.1944 162.24 17.3104 160.75 17.3104Z" fill="#5DEB5A"/>
<path d="M173.383 17.515C173.383 17.887 173.42 18.3892 173.458 18.5938H175.134C175.097 18.2776 175.041 17.6452 175.041 16.9384V9.64724H173.29V15.0412C173.29 16.399 172.582 17.329 171.167 17.329C169.696 17.329 169.137 16.2502 169.137 15.0226V9.64724H167.387V15.283C167.387 17.3104 168.653 18.8728 170.739 18.8728C171.782 18.8728 172.899 18.445 173.383 17.515Z" fill="#5DEB5A"/>
<path d="M184.213 17.236V17.3848C184.213 17.9242 184.269 18.3892 184.306 18.5938H186.001C185.982 18.445 185.908 17.794 185.908 16.9384V5.12744H184.176V10.912C183.878 10.1866 183.021 9.40544 181.438 9.40544C178.905 9.40544 177.192 11.563 177.192 14.0926C177.192 16.7524 178.812 18.8356 181.438 18.8356C182.835 18.8356 183.785 18.0916 184.213 17.236ZM178.98 14.0926C178.98 12.2512 180.023 10.9492 181.624 10.9492C183.226 10.9492 184.194 12.214 184.194 14.0554C184.194 15.8968 183.207 17.2918 181.606 17.2918C179.93 17.2918 178.98 15.934 178.98 14.0926Z" fill="#5DEB5A"/>
</svg>
