<svg width="1512" height="752" viewBox="0 0 1512 752" fill="none" xmlns="http://www.w3.org/2000/svg">
<g opacity="0.5">
<rect x="1196" y="80" width="80" height="80" fill="#1E293B"/>
<rect x="1276" y="160" width="80" height="80" fill="#1E293B"/>
<rect x="1436" y="160" width="80" height="80" fill="#1E293B"/>
<rect x="1436" y="320" width="80" height="80" fill="#1E293B"/>
<rect x="1356" y="240" width="80" height="80" fill="#1E293B"/>
<rect x="1356" y="80" width="80" height="80" fill="#1E293B"/>
<rect x="1436" y="480" width="80" height="80" fill="#1E293B"/>
<rect x="76" y="240" width="80" height="80" fill="#1E293B"/>
<rect x="316" y="480" width="80" height="80" fill="#1E293B"/>
<rect x="-4" y="560" width="80" height="80" fill="#1E293B"/>
<rect x="-4" y="160" width="80" height="80" fill="#1E293B"/>
<rect x="-4" y="320" width="80" height="80" fill="#1E293B"/>
<rect x="76" y="80" width="80" height="80" fill="#1E293B"/>
</g>
<line x1="76.5" y1="-2.18557e-08" x2="76.5" y2="752" stroke="#1E293B"/>
<line x1="156.5" y1="-2.18557e-08" x2="156.5" y2="752" stroke="#1E293B"/>
<line x1="236.5" y1="-2.18557e-08" x2="236.5" y2="752" stroke="#1E293B"/>
<line x1="316.5" y1="-2.18557e-08" x2="316.5" y2="752" stroke="#1E293B"/>
<line x1="396.5" y1="-2.18557e-08" x2="396.5" y2="752" stroke="#1E293B"/>
<line x1="476.5" y1="-2.18557e-08" x2="476.5" y2="752" stroke="#1E293B"/>
<line x1="556.5" y1="-2.18557e-08" x2="556.5" y2="752" stroke="#1E293B"/>
<line x1="636.5" y1="-2.18557e-08" x2="636.5" y2="752" stroke="#1E293B"/>
<line x1="716.5" y1="-2.18557e-08" x2="716.5" y2="752" stroke="#1E293B"/>
<line x1="796.5" y1="-2.18557e-08" x2="796.5" y2="752" stroke="#1E293B"/>
<line x1="876.5" y1="-2.18557e-08" x2="876.5" y2="752" stroke="#1E293B"/>
<line x1="956.5" y1="-2.18557e-08" x2="956.5" y2="752" stroke="#1E293B"/>
<line x1="1036.5" y1="-2.18557e-08" x2="1036.5" y2="752" stroke="#1E293B"/>
<line x1="1116.5" y1="-2.18557e-08" x2="1116.5" y2="752" stroke="#1E293B"/>
<line x1="1196.5" y1="-2.18557e-08" x2="1196.5" y2="752" stroke="#1E293B"/>
<line x1="1276.5" y1="-2.18557e-08" x2="1276.5" y2="752" stroke="#1E293B"/>
<line x1="1356.5" y1="-2.18557e-08" x2="1356.5" y2="752" stroke="#1E293B"/>
<line x1="1436.5" y1="-2.18557e-08" x2="1436.5" y2="752" stroke="#1E293B"/>
<line x1="4.37114e-08" y1="79.5" x2="1512" y2="79.5001" stroke="#1E293B"/>
<line x1="4.37114e-08" y1="159.5" x2="1512" y2="159.5" stroke="#1E293B"/>
<line x1="4.37114e-08" y1="239.5" x2="1512" y2="239.5" stroke="#1E293B"/>
<line x1="4.37114e-08" y1="319.5" x2="1512" y2="319.501" stroke="#1E293B"/>
<line x1="4.37114e-08" y1="399.501" x2="1512" y2="399.501" stroke="#1E293B"/>
<line x1="4.37114e-08" y1="479.501" x2="1512" y2="479.501" stroke="#1E293B"/>
<line x1="4.37114e-08" y1="559.501" x2="1512" y2="559.501" stroke="#1E293B"/>
<line x1="4.37114e-08" y1="639.501" x2="1512" y2="639.501" stroke="#1E293B"/>
<line x1="4.37114e-08" y1="719.501" x2="1512" y2="719.501" stroke="#1E293B"/>
</svg>
