<svg width="28" height="28" viewBox="0 0 28 28" fill="none" xmlns="http://www.w3.org/2000/svg">
<path d="M12.6289 7.14286V11.7241C12.6289 12.2357 12.8012 12.7331 13.1173 13.1357L13.9753 14.2277C14.2503 14.5777 14.7789 14.5777 15.0539 14.2277L15.9119 13.1357C16.228 12.7331 16.4003 12.2357 16.4003 11.7241V7.14286C16.4003 6.51161 15.8887 6 15.2575 6H13.7718C13.1405 6 12.6289 6.51161 12.6289 7.14286Z" fill="#64748B"/>
<path d="M7.14258 10.1143V19.7143C7.14258 20.9768 8.1658 22 9.42829 22H19.9997C20.4729 22 20.8569 21.6161 20.8569 21.1428C20.8569 20.6696 20.4729 20.2857 19.9997 20.2857H9.42829C9.11312 20.2857 8.85686 20.0294 8.85686 19.7143C8.85686 19.3991 9.11312 19.1428 9.42829 19.1428H19.714C20.3453 19.1428 20.8569 18.6312 20.8569 18C20.8569 17.9509 20.8506 17.9036 20.839 17.858C20.8506 17.7928 20.8569 17.7259 20.8569 17.6571V8.97141C20.8569 7.70892 19.8336 6.6857 18.5711 6.6857H17.4283V8.39999H18.2283C18.7336 8.39999 19.1426 8.80892 19.1426 9.31427V17.4286H8.85686V10.4571C8.85686 9.3214 9.77828 8.39999 10.914 8.39999H11.5997V6.6857H10.5711C8.67739 6.6857 7.14258 8.22051 7.14258 10.1143Z" fill="#64748B"/>
</svg>
