<svg width="28" height="28" viewBox="0 0 28 28" fill="none" xmlns="http://www.w3.org/2000/svg">
<path d="M10.9205 6.2964C10.4211 5.56672 9.42501 5.38097 8.69649 5.8798C7.9672 6.37902 7.78067 7.37472 8.27989 8.10383L9.72755 10.2187V17.6782L8.27989 19.7931C7.78067 20.5224 7.9672 21.5181 8.69649 22.0173C8.97286 22.2064 9.28731 22.297 9.59884 22.297C10.109 22.297 10.6106 22.0536 10.9205 21.6009L12.6479 19.0775C12.8301 18.8111 12.9275 18.4962 12.9275 18.1736V9.72355C12.9275 9.4009 12.8301 9.08605 12.6479 8.81984L10.9205 6.2964Z" fill="#64748B"/>
<path d="M17.1535 21.6009C17.4637 22.0536 17.9648 22.297 18.4754 22.297C18.7867 22.297 19.1012 22.2064 19.3777 22.0173C20.1066 21.5181 20.2934 20.5224 19.7941 19.7931L18.3465 17.6783V10.2187L19.7941 8.10384C20.2934 7.37474 20.1066 6.37903 19.3777 5.87982C18.648 5.3806 17.6531 5.56732 17.1535 6.29642L15.4262 8.81985C15.2441 9.08607 15.1465 9.40091 15.1465 9.72357V18.1736C15.1465 18.4962 15.2441 18.8111 15.4262 19.0775L17.1535 21.6009Z" fill="#64748B"/>
</svg>
