<svg width="28" height="28" viewBox="0 0 28 28" fill="none" xmlns="http://www.w3.org/2000/svg">
    <g fill="currentColor">
<path d="M21.3366 13.647L15.8368 8.87439C15.6905 8.74672 15.4787 8.7145 15.298 8.79087C15.1168 8.86723 15.0005 9.03845 15.0005 9.22757V11.2809C13.5925 11.2821 10.2763 11.584 8.10952 14.1803C7.02329 15.482 6.65519 17.7728 6.51644 18.6355L6.50581 18.7C6.47206 18.9105 6.58769 19.1164 6.79017 19.2059C6.85767 19.2357 6.92892 19.25 6.99954 19.25C7.14142 19.25 7.28078 19.1921 7.37829 19.0848C8.18201 18.1964 9.57695 17.0033 11.6532 16.3632C12.7344 16.0303 13.8575 15.8883 14.9994 15.9414V18.2955C14.9994 18.4799 15.1106 18.6475 15.2856 18.7268C15.4594 18.805 15.6669 18.7817 15.8169 18.6648L21.3167 14.3694C21.4292 14.2817 21.4961 14.1511 21.4998 14.0127C21.5036 13.8737 21.4436 13.7407 21.3361 13.647L21.3366 13.647Z"/>
    </g>
</svg>
