<svg width="28" height="28" viewBox="0 0 28 28" xmlns="http://www.w3.org/2000/svg">
<path fill-rule="evenodd" clip-rule="evenodd" d="M13.1519 4.7515C13.6205 4.28287 14.3803 4.28287 14.849 4.7515L23.249 13.1515C23.5922 13.4947 23.6948 14.0108 23.5091 14.4592C23.3233 14.9077 22.8858 15.2 22.4004 15.2H21.2004V22.4C21.2004 23.0628 20.6632 23.6 20.0004 23.6H17.6004C16.9377 23.6 16.4004 23.0628 16.4004 22.4V18.8C16.4004 18.1373 15.8632 17.6 15.2004 17.6H12.8004C12.1377 17.6 11.6004 18.1373 11.6004 18.8V22.4C11.6004 23.0628 11.0632 23.6 10.4004 23.6H8.00043C7.33768 23.6 6.80043 23.0628 6.80043 22.4V15.2H5.60043C5.11507 15.2 4.67751 14.9077 4.49177 14.4592C4.30603 14.0108 4.4087 13.4947 4.7519 13.1515L13.1519 4.7515Z" fill="#64748B"/>
</svg>
