<svg width="28" height="28" viewBox="0 0 28 28" fill="none" xmlns="http://www.w3.org/2000/svg">
    <g fill="currentColor">
<path d="M4.27734 17.6111C4.27734 14.5429 6.76465 12.0556 9.8329 12.0556C12.9011 12.0556 15.3885 14.5429 15.3885 17.6111C15.3885 20.6794 12.9011 23.1667 9.8329 23.1667C6.76465 23.1667 4.27734 20.6794 4.27734 17.6111Z" />
<path fill-rule="evenodd" clip-rule="evenodd" d="M12.834 6.2778H20.7229C21.2752 6.2778 21.7229 6.72552 21.7229 7.2778V15.1667C21.7229 15.719 21.2752 16.1667 20.7229 16.1667H17.2505C17.341 16.6342 17.3885 17.1171 17.3885 17.6111C17.3885 17.798 17.3817 17.9832 17.3683 18.1667H20.7229C22.3797 18.1667 23.7229 16.8235 23.7229 15.1667V7.2778C23.7229 5.62095 22.3797 4.2778 20.7229 4.2778H12.834C11.1771 4.2778 9.83398 5.62095 9.83398 7.2778V10.0556C10.5264 10.0557 11.197 10.1489 11.834 10.3234V7.2778C11.834 6.72552 12.2817 6.2778 12.834 6.2778ZM11.834 12.4269C11.2134 12.1872 10.5391 12.0557 9.83398 12.0556V15.1667C9.83398 16.8235 11.1771 18.1667 12.834 18.1667H15.361C15.3792 17.984 15.3885 17.7986 15.3885 17.6111C15.3885 17.1115 15.3225 16.6273 15.1988 16.1667H12.834C12.2817 16.1667 11.834 15.719 11.834 15.1667V12.4269Z" />
    </g>
</svg>
