<svg width="28" height="28" viewBox="0 0 28 28" fill="none" xmlns="http://www.w3.org/2000/svg">
<path d="M23.8583 17.8225C23.8576 17.7686 23.8471 17.7152 23.8273 17.665L23.754 17.4823C23.7053 17.3384 23.6487 17.1974 23.5845 17.0599L19.4257 6.69552C19.0364 5.64253 18.102 4.94991 17.0882 5.00295C16.5956 5.01792 16.1206 5.19224 15.7326 5.50047C15.3446 5.8087 15.0639 6.23469 14.9313 6.71627C14.9131 6.77318 14.906 6.83315 14.9105 6.89281L15.1213 9.67425C14.7693 9.51143 14.3869 9.42717 14 9.42717C13.6132 9.42717 13.2308 9.51143 12.8788 9.67425L13.0896 6.89281C13.0941 6.83315 13.087 6.77318 13.0687 6.71627C12.9362 6.23469 12.6555 5.8087 12.2675 5.50047C11.8795 5.19224 11.4045 5.01792 10.9119 5.00295C9.88743 4.94889 8.96325 5.64338 8.57927 6.68378L4.58532 16.6367C4.246 17.4108 4 18.3006 4 18.8486C3.99928 19.9456 4.42676 20.9981 5.18893 21.7761C5.95111 22.5541 6.98594 22.9941 8.06704 22.9999C9.14815 23.0058 10.1875 22.577 10.9578 21.8073C11.7281 21.0376 12.1666 19.9897 12.1774 18.8928C12.1778 18.8895 12.1802 18.8871 12.1805 18.8837L12.3659 16.4388C13.0909 15.6203 14.9091 15.6203 15.6341 16.4388L15.8195 18.8837C15.8198 18.8871 15.8222 18.8894 15.8226 18.8928C15.8334 19.9896 16.2719 21.0375 17.0422 21.8072C17.8124 22.5769 18.8518 23.0057 19.9329 22.9999C21.014 22.9941 22.0489 22.554 22.811 21.7761C23.5732 20.9981 24.0007 19.9456 24 18.8486C23.9957 18.5019 23.9481 18.1571 23.8583 17.8225ZM8.09091 21.1546C7.64141 21.1546 7.202 21.0193 6.82825 20.766C6.4545 20.5126 6.1632 20.1524 5.99118 19.7311C5.81917 19.3097 5.77416 18.8461 5.86185 18.3988C5.94955 17.9514 6.166 17.5406 6.48385 17.2181C6.8017 16.8956 7.20666 16.676 7.64752 16.587C8.08839 16.498 8.54536 16.5437 8.96064 16.7182C9.37593 16.8927 9.73088 17.1883 9.98061 17.5675C10.2303 17.9467 10.3636 18.3926 10.3636 18.8486C10.363 19.46 10.1234 20.0462 9.69727 20.4785C9.27119 20.9108 8.69348 21.1539 8.09091 21.1546ZM19.9091 21.1546C19.4596 21.1546 19.0202 21.0193 18.6464 20.766C18.2727 20.5126 17.9814 20.1524 17.8094 19.7311C17.6373 19.3097 17.5923 18.8461 17.68 18.3988C17.7677 17.9514 17.9842 17.5406 18.302 17.2181C18.6199 16.8956 19.0248 16.676 19.4657 16.587C19.9066 16.498 20.3635 16.5437 20.7788 16.7182C21.1941 16.8927 21.5491 17.1883 21.7988 17.5675C22.0485 17.9467 22.1818 18.3926 22.1818 18.8486C22.1812 19.46 21.9415 20.0462 21.5155 20.4785C21.0894 20.9108 20.5117 21.1539 19.9091 21.1546Z" fill="#64748B"/>
</svg>
