<svg width="28" height="28" viewBox="0 0 28 28" fill="none" xmlns="http://www.w3.org/2000/svg">
    <g fill="currentColor">
<path d="M8 5C6.34315 5 5 6.34315 5 8V10.25C5 11.9069 6.34315 13.25 8 13.25H10.25C11.9069 13.25 13.25 11.9069 13.25 10.25V8C13.25 6.34315 11.9069 5 10.25 5H8Z" />
<path d="M17.75 5C16.0931 5 14.75 6.34315 14.75 8V10.25C14.75 11.9069 16.0931 13.25 17.75 13.25H20C21.6569 13.25 23 11.9069 23 10.25V8C23 6.34315 21.6569 5 20 5H17.75Z" />
<path d="M8 14.75C6.34315 14.75 5 16.0931 5 17.75V20C5 21.6569 6.34315 23 8 23H10.25C11.9069 23 13.25 21.6569 13.25 20V17.75C13.25 16.0931 11.9069 14.75 10.25 14.75H8Z" />
<path d="M19.625 15.5C19.625 15.0858 19.2892 14.75 18.875 14.75C18.4608 14.75 18.125 15.0858 18.125 15.5V18.125H15.5C15.0858 18.125 14.75 18.4608 14.75 18.875C14.75 19.2892 15.0858 19.625 15.5 19.625H18.125V22.25C18.125 22.6642 18.4608 23 18.875 23C19.2892 23 19.625 22.6642 19.625 22.25V19.625H22.25C22.6642 19.625 23 19.2892 23 18.875C23 18.4608 22.6642 18.125 22.25 18.125H19.625V15.5Z" />
    </g>
</svg>
