<svg width="28" height="28" viewBox="0 0 28 28" fill="none" xmlns="http://www.w3.org/2000/svg">
    <g fill="currentColor">
<path d="M13.2385 6.25084C13.2251 6.26423 13.2117 6.27852 13.1992 6.2928L9.60448 9.88755C9.26967 10.2224 9.26967 10.7652 9.60448 11.1C9.93929 11.434 10.4821 11.434 10.817 11.1L13.0893 8.82684V13.425C13.0813 13.7902 13.0322 14.058 12.7813 14.242L8.27497 16.8438C8.22854 16.8706 8.18569 16.9009 8.1464 16.9349V16.934C7.12855 17.6277 7.1339 18.2679 7.14462 19.4169C7.14551 19.4928 7.1464 19.5714 7.1464 19.6518V21.2446C7.1464 21.7178 7.53033 22.1018 8.00355 22.1018C8.47676 22.1018 8.86069 21.7178 8.86069 21.2446V19.0803C8.8723 18.7446 8.92944 18.4848 9.16425 18.3107L13.9019 15.5749C13.9402 15.5526 13.976 15.5285 14.009 15.5017L14.0117 15.499C14.0385 15.4785 14.0635 15.4553 14.0867 15.4321C14.6608 14.8919 14.7751 14.3374 14.7983 13.5722C14.8019 13.5401 14.8036 13.5071 14.8036 13.4731V9.02856L16.8751 11.1C17.2099 11.4339 17.7527 11.4339 18.0876 11.1C18.4224 10.7652 18.4224 10.2223 18.0876 9.88749L14.5545 6.35537C14.5537 6.35359 14.5519 6.3527 14.551 6.35091L14.4929 6.29287C14.4804 6.27859 14.467 6.2643 14.4537 6.25091C14.2858 6.08305 14.0653 5.99912 13.8447 6.00001C13.6251 6.00001 13.4064 6.08297 13.2385 6.25084Z" />
<path fill-rule="evenodd" clip-rule="evenodd" d="M13.8446 5.65C14.1546 5.64893 14.4655 5.76726 14.7017 6.0034C14.7017 6.0034 14.7017 6.00339 14.7017 6.0034M13.8446 5.65C13.5365 5.65018 13.2278 5.76711 12.9916 6.00335C12.9758 6.01913 12.96 6.03579 12.9448 6.05281L9.35756 9.64005C8.88606 10.1116 8.88607 10.876 9.35755 11.3475C9.82898 11.8177 10.5933 11.818 11.0647 11.3479L12.7399 9.67204V13.4211C12.7321 13.7577 12.6852 13.8723 12.5878 13.9498L8.49697 16.3118V16.2718L8.11365 16.5331L8.10063 16.5406C8.10066 16.5406 8.1006 16.5407 8.10063 16.5406C8.04435 16.5731 7.99094 16.6099 7.94092 16.6509C7.39075 17.0278 7.0802 17.4179 6.92692 17.8983C6.785 18.3432 6.78971 18.8402 6.79485 19.383L6.7952 19.4202C6.7961 19.4963 6.79697 19.5737 6.79697 19.6518V21.2446C6.79697 21.9111 7.3376 22.4518 8.00411 22.4518C8.67063 22.4518 9.21126 21.9111 9.21126 21.2446V19.0865C9.22213 18.7891 9.27137 18.6745 9.36008 18.6021L14.0774 15.878L14.0783 15.8775C14.1298 15.8475 14.1809 15.8134 14.23 15.7736L14.2441 15.7621L14.2454 15.7608C14.2785 15.7339 14.3072 15.7069 14.3308 15.6834C14.6544 15.378 14.8583 15.0577 14.9808 14.6998C15.0998 14.3519 15.136 13.9846 15.1483 13.5958C15.1523 13.5552 15.1542 13.5143 15.1542 13.4731V9.87353L16.6282 11.3475C17.0996 11.8176 17.8639 11.818 18.3353 11.3478C18.8068 10.8763 18.8071 10.1115 18.3356 9.64L14.8401 6.14534L14.8392 6.14358L14.7485 6.05289M14.2067 6.49839C14.1073 6.399 13.9775 6.34947 13.8467 6.35L13.8453 6.35C13.7143 6.35 13.5859 6.399 13.4866 6.4983C13.4785 6.50638 13.4704 6.51502 13.4632 6.52328L13.4555 6.53205L9.85254 10.135C9.6545 10.3331 9.6544 10.6541 9.85228 10.8523C10.0504 11.0499 10.3721 11.0499 10.5703 10.8523C10.5703 10.8523 10.5703 10.8524 10.5703 10.8523L13.4399 7.98162V13.4327C13.4316 13.8089 13.384 14.2345 12.9888 14.5242L12.9734 14.5355L8.45055 17.1469C8.42261 17.163 8.39778 17.1807 8.37573 17.1998L7.8415 17.6611C7.71749 17.8108 7.64266 17.958 7.5938 18.1111C7.48987 18.4369 7.48965 18.8217 7.49517 19.4132C7.49606 19.4889 7.49697 19.5692 7.49697 19.6518V21.2446C7.49697 21.5245 7.7242 21.7518 8.00411 21.7518C8.28403 21.7518 8.51126 21.5245 8.51126 21.2446V19.0682C8.52353 18.7132 8.58438 18.3053 8.95637 18.0295L8.97245 18.0176L13.7265 15.2723C13.7266 15.2723 13.7264 15.2724 13.7265 15.2723C13.7459 15.261 13.7628 15.2499 13.7771 15.2392L13.7811 15.2352L13.7993 15.2213C13.8092 15.2136 13.8222 15.2021 13.8398 15.1846L13.8473 15.177C14.0957 14.9433 14.2349 14.7175 14.3185 14.4732C14.4046 14.2214 14.4377 13.9331 14.449 13.5616L14.4494 13.5476L14.451 13.5336C14.4531 13.5149 14.4542 13.4948 14.4542 13.4731V8.18358L17.1228 10.8522C17.1229 10.8522 17.1227 10.8521 17.1228 10.8522C17.321 11.0496 17.6426 11.0498 17.8408 10.8523C18.0388 10.6542 18.0387 10.3331 17.8407 10.135C17.8407 10.135 17.8407 10.135 17.8407 10.135L14.2675 6.56273L14.2666 6.56092L14.2378 6.53211L14.2301 6.52334C14.2229 6.51508 14.2148 6.50645 14.2067 6.49839Z"/>
<path d="M15.5835 15.4429C15.3469 15.8527 15.488 16.3768 15.8978 16.6134L18.8532 18.3206C19.1532 18.5545 19.1497 18.9366 19.1443 19.4429C19.1443 19.5098 19.1434 19.5795 19.1434 19.6518H19.147V21.2447C19.147 21.7179 19.5309 22.1018 20.0041 22.1018C20.4773 22.1018 20.8613 21.7179 20.8613 21.2447V18.8447C20.8613 18.8108 20.8595 18.7777 20.8559 18.7447C20.8264 17.9983 20.6613 17.4884 19.8791 16.9482C19.8407 16.9161 19.7988 16.8866 19.7532 16.8599L16.7551 15.1295C16.3452 14.892 15.821 15.033 15.5835 15.4429Z"/>
<path fill-rule="evenodd" clip-rule="evenodd" d="M16.931 14.8267C16.9311 14.8267 16.9309 14.8266 16.931 14.8267L19.9312 16.5582C19.9874 16.5913 20.0408 16.6281 20.0909 16.6689C20.5087 16.9595 20.7893 17.2613 20.9639 17.6138C21.1369 17.9632 21.1896 18.3308 21.2056 18.7197C21.2097 18.7611 21.2117 18.8026 21.2117 18.8447V21.2447C21.2117 21.9112 20.6711 22.4518 20.0046 22.4518C19.3381 22.4518 18.7974 21.9112 18.7974 21.2447V20.0018H18.7939V19.6518C18.7939 19.6144 18.7941 19.5778 18.7943 19.5431L18.7943 19.5416C18.7945 19.5071 18.7948 19.4746 18.7948 19.4429V19.4392C18.7975 19.1753 18.7979 18.9918 18.77 18.8453C18.7471 18.7254 18.71 18.6586 18.654 18.6094L15.7233 16.9165C15.7232 16.9165 15.7233 16.9165 15.7233 16.9165C15.1465 16.5835 14.9474 15.8455 15.2809 15.2679C15.6147 14.6918 16.353 14.4919 16.931 14.8267ZM19.496 19.3018C19.4971 19.1029 19.4928 18.8983 19.4575 18.7139C19.4106 18.4684 19.3041 18.2279 19.0689 18.0445L19.0498 18.0296L16.0733 16.3103C15.8306 16.1702 15.7474 15.8601 15.8869 15.6181C16.0281 15.3748 16.3385 15.2923 16.58 15.4323L19.5774 17.1622C19.6067 17.1795 19.6324 17.1977 19.6549 17.2166L19.6673 17.227L19.6807 17.2362C20.0381 17.4831 20.2274 17.7039 20.3366 17.9244C20.4474 18.1483 20.4927 18.4051 20.5066 18.7585L20.5071 18.7704L20.5084 18.7823C20.5106 18.8027 20.5117 18.8232 20.5117 18.8447V21.2447C20.5117 21.5246 20.2845 21.7518 20.0046 21.7518C19.7247 21.7518 19.4974 21.5246 19.4974 21.2447V19.3018H19.496Z"/>
    </g>
</svg>
