<svg width="28" height="28" viewBox="0 0 28 28" fill="none" xmlns="http://www.w3.org/2000/svg">
    <g fill="currentColor">
<path d="M21.2237 15.6333C21.8732 15.6333 22.4082 15.1043 22.3176 14.4611C22.2189 13.7611 22.0321 13.0748 21.7603 12.4188C21.3382 11.3996 20.7194 10.4736 19.9394 9.69361C19.1594 8.9136 18.2334 8.29486 17.2143 7.87272C16.1951 7.45058 15.1028 7.23331 13.9997 7.23331C12.8966 7.23331 11.8043 7.45058 10.7852 7.87272C9.76606 8.29486 8.84005 8.9136 8.06004 9.69361C7.28003 10.4736 6.66129 11.3996 6.23915 12.4188C5.96742 13.0748 5.78058 13.7611 5.68193 14.4611C5.59129 15.1043 6.12625 15.6333 6.77574 15.6333V15.6333C7.42523 15.6333 7.94022 15.1019 8.06571 14.4647C8.14282 14.0732 8.25867 13.6893 8.41212 13.3188C8.71606 12.5851 9.16155 11.9183 9.72316 11.3567C10.2848 10.7951 10.9515 10.3496 11.6853 10.0457C12.419 9.74174 13.2055 9.58531 13.9997 9.58531C14.794 9.58531 15.5804 9.74174 16.3142 10.0457C17.048 10.3496 17.7147 10.7951 18.2763 11.3567C18.8379 11.9183 19.2834 12.5851 19.5874 13.3188C19.7408 13.6893 19.8567 14.0732 19.9338 14.4647C20.0593 15.1019 20.5743 15.6333 21.2237 15.6333V15.6333Z" />
<path fill-rule="evenodd" clip-rule="evenodd" d="M10.67 7.59554C11.7255 7.15832 12.8568 6.93329 13.9993 6.93329C15.1418 6.93329 16.2731 7.15832 17.3287 7.59554C18.3842 8.03275 19.3433 8.67359 20.1511 9.48146C20.959 10.2893 21.5998 11.2484 22.0371 12.3039C22.3185 12.9834 22.512 13.6942 22.6142 14.4193C22.7343 15.2715 22.0251 15.9333 21.2233 15.9333C20.3971 15.9333 19.7852 15.265 19.639 14.5226C19.5657 14.1505 19.4556 13.7857 19.3098 13.4336C19.0209 12.7362 18.5975 12.1026 18.0638 11.5688C17.53 11.0351 16.8964 10.6117 16.199 10.3228C15.5016 10.034 14.7541 9.88529 13.9993 9.88529C13.2445 9.88529 12.497 10.034 11.7996 10.3228C11.1023 10.6117 10.4686 11.0351 9.93486 11.5688C9.40111 12.1026 8.97771 12.7362 8.68885 13.4336C8.54302 13.7857 8.43291 14.1505 8.35963 14.5226C8.21344 15.265 7.60152 15.9333 6.77531 15.9333C5.97352 15.9333 5.26434 15.2715 5.38443 14.4193C5.4866 13.6942 5.68012 12.9834 5.96156 12.3039C6.39877 11.2484 7.03961 10.2893 7.84748 9.48146C8.65535 8.67359 9.61443 8.03275 10.67 7.59554ZM13.9993 7.53329C12.9356 7.53329 11.8823 7.7428 10.8996 8.14986C9.91684 8.55693 9.0239 9.15357 8.27174 9.90572C7.51959 10.6579 6.92295 11.5508 6.51589 12.5336C6.25386 13.1661 6.07369 13.828 5.97856 14.503C5.91739 14.937 6.27813 15.3333 6.77531 15.3333C7.24807 15.3333 7.66614 14.9389 7.77094 14.4067C7.85187 13.9958 7.97346 13.5928 8.13452 13.204C8.45354 12.4338 8.92113 11.734 9.5106 11.1446C10.1001 10.5551 10.7999 10.0875 11.57 9.7685C12.3402 9.44948 13.1657 9.28529 13.9993 9.28529C14.8329 9.28529 15.6584 9.44948 16.4286 9.7685C17.1988 10.0875 17.8986 10.5551 18.488 11.1446C19.0775 11.734 19.5451 12.4338 19.8641 13.204C20.0252 13.5928 20.1468 13.9958 20.2277 14.4067C20.3325 14.9389 20.7505 15.3333 21.2233 15.3333C21.7205 15.3333 22.0812 14.937 22.0201 14.503C21.9249 13.828 21.7448 13.1661 21.4827 12.5336C21.0757 11.5508 20.479 10.6579 19.7269 9.90572C18.9747 9.15357 18.0818 8.55693 17.099 8.14986C16.1163 7.7428 15.063 7.53329 13.9993 7.53329Z"/>
<path d="M16.7992 16.3333C16.7992 17.8797 15.5456 19.1333 13.9992 19.1333C12.4528 19.1333 11.1992 17.8797 11.1992 16.3333C11.1992 14.7869 12.4528 13.5333 13.9992 13.5333C15.5456 13.5333 16.7992 14.7869 16.7992 16.3333Z"/>
<path fill-rule="evenodd" clip-rule="evenodd" d="M13.9984 13.8333C12.6177 13.8333 11.4984 14.9526 11.4984 16.3333C11.4984 17.714 12.6177 18.8333 13.9984 18.8333C15.3791 18.8333 16.4984 17.714 16.4984 16.3333C16.4984 14.9526 15.3791 13.8333 13.9984 13.8333ZM10.8984 16.3333C10.8984 14.6213 12.2864 13.2333 13.9984 13.2333C15.7105 13.2333 17.0984 14.6213 17.0984 16.3333C17.0984 18.0454 15.7105 19.4333 13.9984 19.4333C12.2864 19.4333 10.8984 18.0454 10.8984 16.3333Z"/>
    </g>
</svg>
