<svg width="16" height="16" viewBox="0 0 16 16" fill="none" xmlns="http://www.w3.org/2000/svg">
    <g fill="currentColor">
<path d="M8.90005 1.69999C8.90005 1.20293 8.49711 0.799988 8.00005 0.799988C7.50299 0.799988 7.10005 1.20293 7.10005 1.69999V7.09999H1.70005C1.20299 7.09999 0.800049 7.50293 0.800049 7.99999C0.800049 8.49704 1.20299 8.89999 1.70005 8.89999L7.10005 8.89999V14.3C7.10005 14.797 7.50299 15.2 8.00005 15.2C8.49711 15.2 8.90005 14.797 8.90005 14.3V8.89999H14.3C14.7971 8.89999 15.2 8.49705 15.2 7.99999C15.2 7.50293 14.7971 7.09999 14.3 7.09999H8.90005V1.69999Z" />
    </g>
</svg>
