<svg width="18" height="16" viewBox="0 0 18 16" fill="none" xmlns="http://www.w3.org/2000/svg">
    <g fill="currentColor">
<path fill-rule="evenodd" clip-rule="evenodd" d="M10.9947 5.22977L13.9428 10.2117C15.916 9.54097 18 10.9691 18 13.0233C18 14.6672 16.6333 16 14.9477 16C13.4702 16 12.22 14.9708 11.9493 13.5828H6.05074C5.78002 14.9708 4.52982 16 3.05231 16C1.36666 16 0 14.6672 0 13.0233C0 10.9692 2.08399 9.54091 4.05719 10.2117L5.53187 7.7208L5.53089 7.72024L7.00527 5.22977C5.66362 4.0991 5.58676 2.0958 6.84175 0.871901C8.0338 -0.290634 9.96619 -0.290634 11.1583 0.871901C12.4132 2.09578 12.3364 4.09905 10.9947 5.22977ZM11.9493 12.4638C12.0799 11.7942 12.4411 11.2013 12.9538 10.7695L10.0038 5.7886C9.35639 6.00843 8.64361 6.00843 7.99619 5.78861L6.52141 8.27973L6.52045 8.2792L5.04617 10.7695C5.55897 11.2014 5.92011 11.794 6.05074 12.4638H11.9493Z" />
    </g>
</svg>
