<svg width="41" height="40" viewBox="0 0 41 40" fill="none" xmlns="http://www.w3.org/2000/svg">
<circle cx="20.666" cy="20" r="20" fill="#20DE1C"/>
<path d="M20.6654 12.2927C19.9945 12.2927 19.3916 12.6654 19.0916 13.2652L14.1437 23.1609C13.8691 23.7102 13.8979 24.3499 14.2205 24.8726C14.5435 25.3952 15.103 25.7071 15.717 25.7071H25.6133C26.2273 25.7071 26.7868 25.3952 27.1098 24.8726C27.4328 24.3499 27.4616 23.7102 27.187 23.1609L22.2391 13.2652C21.9392 12.6654 21.3362 12.2927 20.6654 12.2927ZM20.6654 11.0833C21.7901 11.0833 22.8176 11.7186 23.3208 12.7244L28.2687 22.6201C28.7288 23.5402 28.6795 24.6334 28.1387 25.5084C27.5978 26.3837 26.6421 26.9166 25.6133 26.9166H15.7175C14.6886 26.9166 13.7329 26.3837 13.1921 25.5084C12.6512 24.633 12.602 23.5402 13.0621 22.6201L18.01 12.7244C18.5126 11.7186 19.5406 11.0833 20.6654 11.0833Z" fill="white" stroke="white"/>
</svg>
