<svg width="28" height="28" viewBox="0 0 28 28" fill="none" xmlns="http://www.w3.org/2000/svg">
    <g fill="currentColor">
<path d="M20.7437 12.1076C21.0927 12.0995 21.4121 11.9101 21.5866 11.6078L23.3622 8.53254C23.557 8.19503 23.5381 7.77505 23.3135 7.45648L21.8066 5.31825C21.8051 5.31604 21.805 5.31311 21.8063 5.31077V5.31077L20.2948 7.92873C20.135 8.20563 19.8523 8.38939 19.5344 8.42314L17.7862 8.60873C17.3546 8.65454 16.9428 8.41676 16.7667 8.0201L16.0533 6.41336C15.9236 6.12113 15.9414 5.78448 16.1013 5.50758L17.6127 2.88961V2.88961C17.6114 2.89196 17.6088 2.89331 17.6061 2.89306L15.0009 2.65716C14.6127 2.62202 14.2395 2.81557 14.0447 3.15309L12.2692 6.22837C12.0946 6.53064 12.0904 6.90201 12.2578 7.20823L13.6125 9.68507C13.78 9.99128 13.7757 10.3627 13.6012 10.6649L10.9092 15.3275C10.7347 15.6298 10.4153 15.8192 10.0663 15.8272L7.24398 15.8925C6.89505 15.9005 6.57558 16.0899 6.40107 16.3922L4.62555 19.4675C4.43069 19.805 4.44966 20.225 4.67417 20.5436L6.18107 22.6818C6.18263 22.684 6.18276 22.6869 6.1814 22.6893V22.6893L7.69289 20.0713C7.85276 19.7944 8.1354 19.6106 8.45335 19.5769L10.2015 19.3913C10.6331 19.3455 11.0449 19.5833 11.221 19.9799L11.9344 21.5867C12.0641 21.8789 12.0463 22.2156 11.8865 22.4925L10.375 25.1104V25.1104C10.3763 25.1081 10.3789 25.1067 10.3816 25.107L12.9868 25.3429C13.375 25.378 13.7482 25.1845 13.943 24.8469L15.7186 21.7717C15.8931 21.4694 15.8974 21.098 15.7299 20.7918L14.3752 18.315C14.2077 18.0088 14.212 17.6374 14.3865 17.3351L17.0785 12.6725C17.253 12.3703 17.5725 12.1809 17.9214 12.1728L20.7437 12.1076Z"/>
    </g>
</svg>
