<svg width="28" height="28" viewBox="0 0 28 28" fill="none" xmlns="http://www.w3.org/2000/svg">
<g fill="currentColor">
<g clip-path="url(#clip0_8283_4088)">
<mask id="mask0_8283_4088" style="mask-type:luminance" maskUnits="userSpaceOnUse" x="0" y="0" width="28" height="28">
<path d="M28 0H0V28H28V0Z" fill="white"/>
</mask>
<g mask="url(#mask0_8283_4088)">
<path d="M18.2374 7.7116L15.3101 12.0561C15.279 12.1029 15.2611 12.1573 15.2584 12.2135C15.2556 12.2696 15.2681 12.3255 15.2945 12.3751C15.3208 12.4247 15.3601 12.4662 15.4081 12.4951C15.4561 12.5239 15.511 12.539 15.5669 12.5389C15.642 12.5395 15.7149 12.5128 15.7721 12.4637L18.6539 9.96549C18.6707 9.95051 18.6916 9.94083 18.7139 9.93755C18.7362 9.93421 18.7589 9.93749 18.7794 9.94695C18.7999 9.95636 18.8172 9.97156 18.8293 9.99071C18.8414 10.0098 18.8477 10.0321 18.8475 10.0547V17.8748C18.8478 17.899 18.8406 17.9227 18.8268 17.9425C18.8129 17.9623 18.7933 17.9773 18.7705 17.9852C18.7481 17.9932 18.7238 17.9941 18.7009 17.9878C18.6779 17.9815 18.6575 17.9683 18.6421 17.95L9.933 7.5307C9.79273 7.36467 9.61816 7.23134 9.42156 7.14006C9.22491 7.04879 9.01086 7.00176 8.79435 7.00214H8.491C8.09435 7.00214 7.71515 7.15953 7.43515 7.4391C7.15515 7.7186 7 8.09682 7 8.49265V19.5074C7 19.9032 7.1575 20.2826 7.43635 20.5621C7.59604 20.7218 7.78941 20.8432 8.00215 20.9173C8.21488 20.9913 8.44145 21.0161 8.66502 20.9898C8.88858 20.9635 9.10339 20.8868 9.29343 20.7653C9.48347 20.6439 9.64387 20.4809 9.76265 20.2884L12.6899 15.9439C12.7212 15.8971 12.7395 15.8426 12.7424 15.7863C12.7453 15.7299 12.7329 15.6738 12.7065 15.624C12.6801 15.5742 12.6406 15.5326 12.5925 15.5037C12.5443 15.4748 12.4893 15.4597 12.4331 15.4599C12.358 15.4593 12.2851 15.486 12.2279 15.5351L9.34615 18.0333C9.33363 18.0445 9.31886 18.0529 9.30284 18.0578C9.28681 18.0627 9.26991 18.0641 9.25334 18.0619C9.23672 18.0597 9.2208 18.0539 9.20664 18.0449C9.19242 18.0359 9.18034 18.024 9.17115 18.0099C9.15884 17.9906 9.15234 17.9681 9.1525 17.9453V10.1229C9.15234 10.0987 9.15966 10.0751 9.17345 10.0553C9.18728 10.0355 9.20686 10.0206 9.2295 10.0125C9.25192 10.0045 9.2762 10.0036 9.29912 10.0099C9.32209 10.0162 9.34254 10.0294 9.35785 10.0477L18.0646 20.4705C18.2049 20.6366 18.3794 20.7699 18.5761 20.8612C18.7727 20.9525 18.9868 20.9995 19.2034 20.999H19.5066C19.8011 20.999 20.089 20.9116 20.3345 20.7478C20.5799 20.5841 20.772 20.3512 20.8869 20.0782C20.9614 19.8972 20.9999 19.7033 21 19.5074V8.49265C21 8.09682 20.8425 7.71746 20.5636 7.43789C20.404 7.27821 20.2106 7.1568 19.9979 7.08275C19.7851 7.00871 19.5585 6.98388 19.335 7.01018C19.1114 7.03649 18.8966 7.11321 18.7066 7.23467C18.5165 7.35608 18.3561 7.5191 18.2374 7.7116Z" />
</g>
</g>
<defs>
<clipPath id="clip0_8283_4088">
<rect width="28" height="28" fill="white"/>
</clipPath>
</defs>
</g>
</svg>
