<svg width="14" height="14" viewBox="0 0 14 14" fill="none" xmlns="http://www.w3.org/2000/svg">
<g id="Icon/Aurora">
<path id="Vector" d="M7.00065 2.30511C7.47024 2.30511 7.89231 2.56599 8.10226 2.98588L11.5658 9.91285C11.758 10.2973 11.7378 10.7452 11.5121 11.111C11.286 11.4769 10.8943 11.6952 10.4645 11.6952H3.53713C3.10729 11.6952 2.71566 11.4769 2.48956 11.111C2.26346 10.7452 2.24327 10.2973 2.43552 9.91285L5.89904 2.98588C6.10899 2.56599 6.53106 2.30511 7.00065 2.30511ZM7.00065 1.4585C6.21335 1.4585 5.49405 1.90323 5.14186 2.6073L1.67834 9.53426C1.35627 10.1784 1.39074 10.9436 1.76933 11.5561C2.14793 12.1688 2.8169 12.5418 3.53713 12.5418H10.4642C11.1844 12.5418 11.8534 12.1688 12.232 11.5561C12.6106 10.9433 12.645 10.1784 12.323 9.53426L8.85944 2.6073C8.50756 1.90323 7.78796 1.4585 7.00065 1.4585Z" fill="#0F172A" stroke="#0F172A" stroke-width="0.5"/>
</g>
</svg>
