<svg width="48" height="48" viewBox="0 0 48 48" fill="none" xmlns="http://www.w3.org/2000/svg">
<rect width="48" height="48" rx="12" fill="#0F172A"/>
<path d="M37.76 31C38.9971 31 40.0161 29.9923 39.8435 28.7673C39.6556 27.4339 39.2997 26.1266 38.7821 24.8771C37.978 22.9359 36.7994 21.172 35.3137 19.6863C33.828 18.2006 32.0641 17.022 30.1229 16.2179C28.1817 15.4139 26.1011 15 24 15C21.8988 15 19.8183 15.4139 17.8771 16.2179C15.9359 17.022 14.172 18.2006 12.6863 19.6863C11.2006 21.172 10.022 22.9359 9.21793 24.8771C8.70034 26.1266 8.34445 27.4339 8.15655 28.7673C7.98391 29.9923 9.00288 31 10.24 31C11.4771 31 12.4581 29.9879 12.6971 28.7741C12.844 28.0283 13.0646 27.2971 13.3569 26.5915C13.9358 25.1938 14.7844 23.9239 15.8541 22.8541C16.9239 21.7844 18.1938 20.9358 19.5915 20.3569C20.9892 19.778 22.4872 19.48 24 19.48C25.5128 19.48 27.0108 19.778 28.4085 20.3569C29.8062 20.9358 31.0761 21.7844 32.1459 22.8541C33.2156 23.9239 34.0642 25.1938 34.6431 26.5915C34.9354 27.2971 35.156 28.0283 35.3029 28.7741C35.5419 29.9879 36.5229 31 37.76 31Z" fill="#F8FAFC"/>
<path d="M31.5316 30.9994C32.5267 30.9994 33.351 30.1853 33.16 29.2087C33.0411 28.6001 32.8614 28.0033 32.623 27.4276C32.1539 26.2953 31.4664 25.2664 30.5997 24.3997C29.7331 23.533 28.7042 22.8455 27.5718 22.3765C26.4394 21.9074 25.2258 21.666 24.0001 21.666C22.7744 21.666 21.5607 21.9074 20.4284 22.3765C19.296 22.8455 18.2671 23.533 17.4004 24.3997C16.5337 25.2664 15.8462 26.2953 15.3772 27.4276C15.1387 28.0033 14.9591 28.6001 14.8401 29.2087C14.6492 30.1853 15.4734 30.9994 16.4686 30.9994C17.4637 30.9994 18.2436 30.1734 18.5514 29.2271C18.5975 29.0852 18.6493 28.945 18.7065 28.8067C18.9945 28.1115 19.4165 27.4799 19.9486 26.9478C20.4806 26.4158 21.1123 25.9937 21.8074 25.7058C22.5026 25.4178 23.2476 25.2696 24.0001 25.2696C24.7525 25.2696 25.4976 25.4178 26.1927 25.7058C26.8879 25.9937 27.5195 26.4158 28.0516 26.9478C28.5836 27.4799 29.0057 28.1115 29.2936 28.8067C29.3509 28.945 29.4027 29.0852 29.4488 29.2271C29.7566 30.1734 30.5365 30.9994 31.5316 30.9994Z" fill="#F8FAFC"/>
</svg>
