<svg width="48" height="48" viewBox="0 0 48 48" fill="none" xmlns="http://www.w3.org/2000/svg">
<g clip-path="url(#clip0_8239_14777)">
<rect width="48" height="48" rx="12" fill="#0F172A"/>
<g clip-path="url(#clip1_8239_14777)">
<mask id="mask0_8239_14777" style="mask-type:luminance" maskUnits="userSpaceOnUse" x="0" y="0" width="48" height="48">
<path d="M48 0H0V48H48V0Z" fill="white"/>
</mask>
<g mask="url(#mask0_8239_14777)">
<path d="M31.264 13.2199L26.246 20.6677C26.1926 20.7478 26.162 20.841 26.1572 20.9374C26.1525 21.0337 26.1739 21.1295 26.2191 21.2145C26.2643 21.2995 26.3317 21.3706 26.4139 21.4201C26.4961 21.4695 26.5902 21.4955 26.686 21.4952C26.8149 21.4963 26.9399 21.4506 27.038 21.3664L31.978 17.0837C32.007 17.058 32.0427 17.0414 32.081 17.0358C32.1191 17.0301 32.1581 17.0357 32.1933 17.0519C32.2283 17.068 32.2581 17.0941 32.2788 17.1269C32.2995 17.1597 32.3104 17.1979 32.31 17.2367V30.6425C32.3106 30.684 32.2981 30.7246 32.2745 30.7586C32.2507 30.7926 32.217 30.8182 32.178 30.8318C32.1396 30.8455 32.0979 30.847 32.0587 30.8362C32.0193 30.8254 31.9842 30.8028 31.958 30.7714L17.028 12.9098C16.7875 12.6251 16.4883 12.3966 16.1512 12.2401C15.8141 12.0836 15.4472 12.003 15.076 12.0037H14.556C13.876 12.0037 13.226 12.2735 12.746 12.7527C12.266 13.2319 12 13.8803 12 14.5588V33.4412C12 34.1198 12.27 34.7701 12.748 35.2494C13.0218 35.5231 13.3533 35.7312 13.718 35.8582C14.0827 35.9851 14.4711 36.0277 14.8543 35.9826C15.2376 35.9375 15.6058 35.806 15.9316 35.5977C16.2574 35.3896 16.5323 35.1101 16.736 34.7801L21.754 27.3324C21.8078 27.2522 21.8391 27.1587 21.844 27.0622C21.8491 26.9655 21.8278 26.8693 21.7825 26.7839C21.7373 26.6986 21.6697 26.6273 21.5872 26.5778C21.5046 26.5282 21.4102 26.5023 21.314 26.5028C21.1851 26.5017 21.0601 26.5475 20.962 26.6317L16.022 30.9143C16.0005 30.9335 15.9752 30.9478 15.9477 30.9563C15.9202 30.9647 15.8913 30.967 15.8629 30.9633C15.8344 30.9595 15.8071 30.9495 15.7828 30.934C15.7584 30.9187 15.7377 30.8982 15.722 30.874C15.7009 30.841 15.6897 30.8025 15.69 30.7633V17.3535C15.6897 17.3121 15.7023 17.2716 15.7259 17.2376C15.7496 17.2037 15.7832 17.1781 15.822 17.1642C15.8604 17.1505 15.9021 17.149 15.9413 17.1598C15.9807 17.1706 16.0158 17.1932 16.042 17.2247L30.968 35.0922C31.2084 35.377 31.5076 35.6056 31.8447 35.7621C32.1818 35.9185 32.5488 35.9992 32.92 35.9983H33.44C33.9448 35.9982 34.4383 35.8484 34.8591 35.5677C35.2799 35.287 35.6092 34.8878 35.806 34.4198C35.9339 34.1096 35.9998 33.777 36 33.4412V14.5588C36 13.8803 35.73 13.2299 35.252 12.7507C34.9782 12.4769 34.6467 12.2688 34.282 12.1419C33.9173 12.0149 33.5289 11.9724 33.1457 12.0175C32.7624 12.0625 32.3942 12.1941 32.0684 12.4023C31.7426 12.6104 31.4677 12.8899 31.264 13.2199Z" fill="#F8FAFC"/>
</g>
</g>
</g>
<defs>
<clipPath id="clip0_8239_14777">
<rect width="48" height="48" rx="12" fill="white"/>
</clipPath>
<clipPath id="clip1_8239_14777">
<rect width="48" height="48" fill="white"/>
</clipPath>
</defs>
</svg>
