<svg width="41" height="40" viewBox="0 0 41 40" fill="none" xmlns="http://www.w3.org/2000/svg">
<rect x="0.333496" width="40" height="40" rx="12" fill="#0F172A"/>
<path d="M30.6535 24C31.5813 24 32.3456 23.2442 32.2161 22.3255C32.0752 21.3254 31.8082 20.345 31.42 19.4078C30.817 17.9519 29.9331 16.629 28.8188 15.5147C27.7045 14.4004 26.3816 13.5165 24.9257 12.9134C23.4698 12.3104 21.9094 12 20.3335 12C18.7576 12 17.1972 12.3104 15.7413 12.9134C14.2854 13.5165 12.9625 14.4004 11.8482 15.5147C10.7339 16.629 9.85 17.9519 9.24694 19.4078C8.85875 20.345 8.59183 21.3254 8.45091 22.3255C8.32143 23.2442 9.08566 24 10.0135 24C10.9413 24 11.677 23.2409 11.8563 22.3306C11.9665 21.7712 12.132 21.2228 12.3512 20.6936C12.7854 19.6454 13.4218 18.6929 14.2241 17.8906C15.0264 17.0883 15.9789 16.4519 17.0271 16.0177C18.0754 15.5835 19.1989 15.36 20.3335 15.36C21.4681 15.36 22.5916 15.5835 23.6399 16.0177C24.6881 16.4519 25.6406 17.0883 26.4429 17.8906C27.2452 18.6929 27.8816 19.6454 28.3158 20.6936C28.535 21.2228 28.7005 21.7712 28.8107 22.3306C28.99 23.2409 29.7257 24 30.6535 24Z" fill="#F8FAFC"/>
<circle cx="20.3335" cy="25" r="4" fill="#F8FAFC"/>
</svg>
