<svg width="100%" height="100%" viewBox="0 0 18 18" fill="none" xmlns="http://www.w3.org/2000/svg">
<g id="PenNib">
<path id="Vector" d="M17.1072 5.72067L12.2781 0.891607C12.1737 0.787114 12.0496 0.704224 11.9131 0.647672C11.7766 0.591119 11.6303 0.562012 11.4825 0.562012C11.3348 0.562012 11.1885 0.591119 11.052 0.647672C10.9155 0.704224 10.7914 0.787114 10.687 0.891607L8.68726 2.89129L4.60914 4.42129C4.42383 4.49025 4.25997 4.60682 4.13406 4.75927C4.00815 4.91172 3.92464 5.09466 3.89195 5.28965L2.43156 14.0506C2.42177 14.1093 2.43088 14.1697 2.45758 14.2229C2.48427 14.2761 2.52718 14.3195 2.58011 14.3468C2.63305 14.3741 2.69328 14.3839 2.75213 14.3747C2.81098 14.3656 2.86541 14.338 2.90758 14.296L6.91539 10.2882C6.78841 10.024 6.73289 9.73113 6.75437 9.4388C6.78052 9.07916 6.92117 8.73735 7.15572 8.46348C7.39028 8.1896 7.70639 7.99806 8.05773 7.91692C8.40906 7.83579 8.77715 7.86932 9.10804 8.01262C9.43893 8.15592 9.71522 8.40144 9.89641 8.71319C10.0776 9.02495 10.1542 9.38655 10.1149 9.74499C10.0756 10.1034 9.92254 10.4399 9.67813 10.705C9.43372 10.9701 9.11081 11.1499 8.75674 11.2182C8.40267 11.2864 8.03605 11.2394 7.71062 11.0841L3.70281 15.0919C3.66076 15.1341 3.63318 15.1885 3.62404 15.2474C3.61491 15.3062 3.62469 15.3664 3.65198 15.4194C3.67927 15.4723 3.72265 15.5152 3.77589 15.5419C3.82912 15.5686 3.88946 15.5777 3.9482 15.5679L12.7098 14.1075C12.9045 14.0751 13.0873 13.992 13.2397 13.8666C13.3921 13.7412 13.5088 13.578 13.5782 13.3932L15.1089 9.31012L17.1072 7.31254C17.2117 7.20808 17.2946 7.08404 17.3511 6.94754C17.4077 6.81103 17.4368 6.66472 17.4368 6.51696C17.4368 6.3692 17.4077 6.22289 17.3511 6.08638C17.2946 5.94987 17.2117 5.82584 17.1072 5.72137V5.72067ZM14.6245 8.20411L9.79539 3.37504L11.4829 1.68754L16.312 6.51661L14.6245 8.20411Z" fill="currentColor"/>
</g>
</svg>
