<svg width="100%" height="100%" viewBox="0 0 18 18" fill="none" xmlns="http://www.w3.org/2000/svg">
<g id="TelegramLogo">
<path id="Vector" d="M16.0936 1.8416C16.0064 1.76634 15.9004 1.71629 15.7869 1.69684C15.6734 1.67739 15.5568 1.68927 15.4495 1.73121L1.19998 7.30769C0.998035 7.38622 0.827063 7.52823 0.712805 7.71233C0.598548 7.89644 0.547191 8.11268 0.566464 8.3285C0.585738 8.54432 0.674601 8.74804 0.819673 8.90899C0.964745 9.06993 1.15818 9.1794 1.37084 9.2209L5.06295 9.94582V14.0626C5.06223 14.2869 5.12886 14.5061 5.25423 14.6921C5.3796 14.878 5.55792 15.022 5.76608 15.1053C5.97392 15.1902 6.20248 15.2106 6.42205 15.1638C6.64162 15.117 6.84204 15.0053 6.99725 14.8431L8.77756 12.9967L11.602 15.4689C11.8058 15.6496 12.0686 15.7496 12.341 15.7501C12.4604 15.75 12.579 15.7313 12.6926 15.6946C12.8781 15.6357 13.0451 15.5292 13.1767 15.3857C13.3083 15.2423 13.4001 15.0668 13.4428 14.8768L16.2968 2.46105C16.3223 2.34908 16.3169 2.23227 16.2811 2.12314C16.2453 2.01402 16.1805 1.91669 16.0936 1.8416ZM12.3424 14.6251L6.52897 9.52746L14.8962 3.53051L12.3424 14.6251Z" fill="currentColor" />
</g>
</svg>
