<svg width="40" height="40" fill="none" xmlns="http://www.w3.org/2000/svg"><rect width="40" height="40" rx="12" fill="#E2E8F0"/><path d="M17.941 9.714v6.872c0 .768.259 1.514.733 2.118l1.287 1.637a1.028 1.028 0 0 0 1.618 0l1.287-1.637a3.43 3.43 0 0 0 .733-2.118V9.714c0-.947-.768-1.714-1.715-1.714h-2.228c-.947 0-1.715.767-1.715 1.714Z" fill="#0F172A"/><path d="M9.713 14.171v14.4A3.428 3.428 0 0 0 13.142 32h15.857a1.286 1.286 0 0 0 0-2.572H13.142a.858.858 0 0 1 0-1.714H28.57c.947 0 1.714-.767 1.714-1.714a.86.86 0 0 0-.026-.213c.017-.098.026-.198.026-.302V12.457a3.428 3.428 0 0 0-3.428-3.429H25.14V11.6h1.2a1.37 1.37 0 0 1 1.372 1.371v12.172H12.284V14.685A3.087 3.087 0 0 1 15.37 11.6h1.029V9.028h-1.543a5.142 5.142 0 0 0-5.143 5.143Z" fill="#0F172A"/></svg>
