<svg width="40" height="40" viewBox="0 0 40 40" fill="none" xmlns="http://www.w3.org/2000/svg">
<path d="M0 12C0 5.37258 5.37258 0 12 0H28C34.6274 0 40 5.37258 40 12V28C40 34.6274 34.6274 40 28 40H12C5.37258 40 0 34.6274 0 28V12Z" fill="#E2E8F0"/>
<path d="M15.5999 8.9949C14.8865 7.95249 13.4635 7.68714 12.4227 8.39975C11.3809 9.11292 11.1144 10.5354 11.8276 11.5769L13.8957 14.5981V25.2547L11.8276 28.2759C11.1144 29.3177 11.3809 30.7402 12.4227 31.4533C12.8175 31.7234 13.2668 31.8529 13.7118 31.8529C14.4406 31.8529 15.1571 31.5052 15.5999 30.8585L18.0675 27.2535C18.3279 26.873 18.4671 26.4232 18.4671 25.9623V13.8908C18.4671 13.4299 18.3279 12.9801 18.0675 12.5998L15.5999 8.9949Z" fill="#0F172A"/>
<path d="M24.5059 30.8585C24.9489 31.5052 25.6649 31.8529 26.3943 31.8529C26.839 31.8529 27.2882 31.7234 27.6833 31.4533C28.7246 30.7402 28.9914 29.3177 28.2782 28.2759L26.2101 25.2547V14.5982L28.2782 11.5769C28.9914 10.5354 28.7246 9.11294 27.6833 8.39977C26.6409 7.6866 25.2196 7.95334 24.5059 8.99492L22.0382 12.5998C21.7782 12.9801 21.6387 13.4299 21.6387 13.8908V25.9623C21.6387 26.4232 21.7782 26.873 22.0382 27.2536L24.5059 30.8585Z" fill="#0F172A"/>
</svg>
