<svg width="40" height="40" viewBox="0 0 40 40" fill="none" xmlns="http://www.w3.org/2000/svg">
<rect width="40" height="40" rx="12" fill="#E2E8F0"/>
<path d="M18.8587 8.37626C18.8387 8.39635 18.8186 8.41778 18.7998 8.43921L13.4077 13.8313C12.9055 14.3335 12.9055 15.1478 13.4077 15.6501C13.9099 16.151 14.7242 16.151 15.2265 15.6501L18.6349 12.2403V19.1375C18.6229 19.6853 18.5492 20.0871 18.1729 20.363L11.4134 24.2657C11.3438 24.3059 11.2795 24.3514 11.2206 24.4023V24.401C9.6938 25.4416 9.70182 26.4018 9.7179 28.1254C9.71924 28.2393 9.72058 28.3571 9.72058 28.4776V30.8669C9.72058 31.5768 10.2965 32.1527 11.0063 32.1527C11.7161 32.1527 12.292 31.5768 12.292 30.8669V27.6205C12.3094 27.1169 12.3951 26.7272 12.7474 26.466L19.8538 22.3624C19.9113 22.3289 19.9649 22.2927 20.0145 22.2526L20.0185 22.2485C20.0587 22.2177 20.0962 22.1829 20.131 22.1481C20.9921 21.3378 21.1636 20.5061 21.1984 19.3584C21.2038 19.3101 21.2064 19.2606 21.2064 19.2097V12.5428L24.3136 15.65C24.8158 16.1509 25.6301 16.1509 26.1323 15.65C26.6346 15.1478 26.6346 14.3335 26.1323 13.8312L20.8328 8.53306C20.8315 8.53038 20.8288 8.52904 20.8274 8.52636L20.7404 8.43931C20.7216 8.41788 20.7015 8.39645 20.6815 8.37636C20.4297 8.12458 20.0989 7.99867 19.768 8.00001C19.4386 8.00001 19.1105 8.12446 18.8587 8.37626Z" fill="#0F172A"/>
<path d="M22.3753 22.1641C22.0204 22.7789 22.232 23.565 22.8467 23.9199L27.2799 26.4807C27.7299 26.8316 27.7245 27.4048 27.7165 28.1642C27.7165 28.2646 27.7151 28.3691 27.7151 28.4776H27.7205V30.8669C27.7205 31.5767 28.2964 32.1526 29.0062 32.1526C29.716 32.1526 30.2919 31.5767 30.2919 30.8669V27.2669C30.2919 27.216 30.2892 27.1664 30.2839 27.1169C30.2397 25.9972 29.9919 25.2325 28.8187 24.4222C28.7611 24.374 28.6982 24.3298 28.6299 24.2896L24.1326 21.6941C23.5179 21.3378 22.7315 21.5494 22.3753 22.1641Z" fill="#0F172A"/>
</svg>
