<svg width="41" height="40" fill="none" xmlns="http://www.w3.org/2000/svg"><path d="M.715 20c0-11.046 8.954-20 20-20s20 8.954 20 20-8.955 20-20 20c-11.046 0-20-8.954-20-20Z" fill="#01EC97"/><path d="m26.768 11.017-4.181 6.206a.446.446 0 0 0 .14.627.445.445 0 0 0 .52-.045l4.116-3.569a.165.165 0 0 1 .25.036c.018.028.027.06.027.092v11.171a.165.165 0 0 1-.21.162.166.166 0 0 1-.084-.054L14.905 10.758a2.132 2.132 0 0 0-1.627-.755h-.433c-.567 0-1.109.225-1.509.624-.4.4-.621.94-.621 1.505v15.736a2.134 2.134 0 0 0 2.379 2.117 2.13 2.13 0 0 0 1.568-1.002l4.181-6.206a.445.445 0 0 0-.66-.584l-4.117 3.569a.167.167 0 0 1-.199.016.166.166 0 0 1-.077-.142V14.461a.167.167 0 0 1 .11-.158.166.166 0 0 1 .183.05l12.438 14.89a2.13 2.13 0 0 0 1.627.756h.433c.421 0 .832-.125 1.183-.36.35-.233.625-.566.79-.956.106-.258.16-.535.16-.815V12.132a2.135 2.135 0 0 0-2.378-2.117 2.13 2.13 0 0 0-1.568 1.002Z" fill="#041417"/></svg>