<svg width="16" height="16" viewBox="0 0 16 16" fill="none" xmlns="http://www.w3.org/2000/svg">
<g id="Icon/Aurora">
<path id="Vector" d="M7.99935 2.63431C8.53602 2.63431 9.01839 2.93246 9.25833 3.41233L13.2166 11.3289C13.4364 11.7683 13.4133 12.2801 13.1552 12.6982C12.8968 13.1163 12.4493 13.3659 11.958 13.3659H4.04103C3.54979 13.3659 3.10221 13.1163 2.84381 12.6982C2.58542 12.2801 2.56234 11.7683 2.78205 11.3289L6.74037 3.41233C6.98031 2.93246 7.46268 2.63431 7.99935 2.63431ZM7.99935 1.66675C7.09957 1.66675 6.27752 2.17502 5.87502 2.97966L1.9167 10.8962C1.54863 11.6323 1.58803 12.5069 2.0207 13.2068C2.45338 13.9071 3.21792 14.3334 4.04103 14.3334H11.9577C12.7808 14.3334 13.5453 13.9071 13.978 13.2068C14.4107 12.5065 14.4501 11.6323 14.082 10.8962L10.1237 2.97966C9.72153 2.17502 8.89913 1.66675 7.99935 1.66675Z" fill="#64748B" stroke="#64748B"/>
</g>
</svg>
