<svg width="41" height="40" viewBox="0 0 41 40" fill="none" xmlns="http://www.w3.org/2000/svg">
<rect x="0.333496" width="40" height="40" rx="12" fill="#0F172A"/>
<path d="M18.2764 9.71429V16.5862C18.2764 17.3536 18.5349 18.0996 19.0089 18.7036L20.296 20.3415C20.7085 20.8665 21.5014 20.8665 21.9139 20.3415L23.2009 18.7036C23.675 18.0996 23.9335 17.3536 23.9335 16.5862V9.71429C23.9335 8.76742 23.1661 8 22.2192 8H19.9907C19.0438 8 18.2764 8.76742 18.2764 9.71429Z" fill="#F8FAFC"/>
<path d="M10.0479 14.1712V28.5712C10.0479 30.4649 11.5827 31.9997 13.4764 31.9997H29.3336C30.0434 31.9997 30.6193 31.4239 30.6193 30.714C30.6193 30.0042 30.0434 29.4283 29.3336 29.4283H13.4764C13.0037 29.4283 12.6193 29.0439 12.6193 28.5712C12.6193 28.0984 13.0037 27.714 13.4764 27.714H28.905C29.8519 27.714 30.6193 26.9466 30.6193 25.9997C30.6193 25.9261 30.6099 25.8551 30.5925 25.7868C30.6099 25.689 30.6193 25.5886 30.6193 25.4855V12.4569C30.6193 10.5632 29.0844 9.02832 27.1907 9.02832H25.4764V11.5997H26.6764C27.4344 11.5997 28.0479 12.2132 28.0479 12.9712V25.1426H12.6193V14.6855C12.6193 12.9819 14.0014 11.5997 15.705 11.5997H16.7336V9.02832H15.1907C12.3501 9.02832 10.0479 11.3305 10.0479 14.1712Z" fill="#F8FAFC"/>
</svg>
