<svg width="100%" height="100%" viewBox="0 0 18 18" fill="none" xmlns="http://www.w3.org/2000/svg">
<g id="BookmarksSimple">
<path id="Vector" d="M11.25 3.9375H4.5C4.20163 3.9375 3.91548 4.05603 3.7045 4.267C3.49353 4.47798 3.375 4.76413 3.375 5.0625V15.75C3.375 15.8534 3.40347 15.9547 3.45729 16.0429C3.51112 16.1312 3.58821 16.2029 3.68011 16.2502C3.77201 16.2975 3.87516 16.3185 3.97824 16.311C4.08132 16.3036 4.18035 16.2678 4.26445 16.2077L7.875 13.6287L11.4862 16.2077C11.5703 16.2676 11.6693 16.3032 11.7723 16.3106C11.8753 16.318 11.9783 16.2969 12.0701 16.2496C12.1618 16.2023 12.2388 16.1307 12.2926 16.0426C12.3464 15.9545 12.3749 15.8532 12.375 15.75V5.0625C12.375 4.76413 12.2565 4.47798 12.0455 4.267C11.8345 4.05603 11.5484 3.9375 11.25 3.9375Z" fill="currentColor" />
<path id="Vector_2" d="M13.5 1.6875H6.1875C6.03832 1.6875 5.89524 1.74676 5.78975 1.85225C5.68426 1.95774 5.625 2.10082 5.625 2.25C5.625 2.39918 5.68426 2.54226 5.78975 2.64775C5.89524 2.75324 6.03832 2.8125 6.1875 2.8125H13.5V13.5C13.5 13.6492 13.5593 13.7923 13.6648 13.8977C13.7702 14.0032 13.9133 14.0625 14.0625 14.0625C14.2117 14.0625 14.3548 14.0032 14.4602 13.8977C14.5657 13.7923 14.625 13.6492 14.625 13.5V2.8125C14.625 2.51413 14.5065 2.22798 14.2955 2.017C14.0845 1.80603 13.7984 1.6875 13.5 1.6875Z" fill="currentColor" />
</g>
</svg>
