<svg width="40" height="40" viewBox="0 0 40 40" fill="none" xmlns="http://www.w3.org/2000/svg">
<rect width="40" height="40" rx="12" fill="#0F172A"/>
<path d="M15.6009 8.9949C14.8874 7.95249 13.4644 7.68714 12.4237 8.39975C11.3819 9.11292 11.1154 10.5354 11.8286 11.5769L13.8966 14.5981V25.2547L11.8286 28.2759C11.1154 29.3177 11.3819 30.7402 12.4237 31.4533C12.8185 31.7234 13.2677 31.8529 13.7128 31.8529C14.4416 31.8529 15.1581 31.5052 15.6009 30.8585L18.0685 27.2535C18.3288 26.873 18.4681 26.4232 18.4681 25.9623V13.8908C18.4681 13.4299 18.3288 12.9801 18.0685 12.5998L15.6009 8.9949Z" fill="#F8FAFC"/>
<path d="M24.5059 30.8585C24.9489 31.5052 25.6649 31.8529 26.3943 31.8529C26.839 31.8529 27.2882 31.7234 27.6833 31.4533C28.7246 30.7402 28.9914 29.3177 28.2782 28.2759L26.2101 25.2547V14.5982L28.2782 11.5769C28.9914 10.5354 28.7246 9.11294 27.6833 8.39977C26.6409 7.6866 25.2196 7.95334 24.5059 8.99492L22.0382 12.5998C21.7782 12.9801 21.6387 13.4299 21.6387 13.8908V25.9623C21.6387 26.4232 21.7782 26.873 22.0382 27.2536L24.5059 30.8585Z" fill="#F8FAFC"/>
</svg>
