<svg width="48" height="48" viewBox="0 0 48 48" fill="none" xmlns="http://www.w3.org/2000/svg">
<g id="Icon/Aurora">
<path id="Vector" d="M24 7.90268C25.61 7.90268 27.0571 8.79712 27.7769 10.2368L39.6519 33.9864C40.311 35.3046 40.2418 36.8401 39.4677 38.0944C38.6925 39.3488 37.3497 40.0973 35.876 40.0973H12.1251C10.6513 40.0973 9.30859 39.3488 8.53339 38.0944C7.7582 36.8401 7.68899 35.3046 8.34811 33.9864L20.2231 10.2368C20.9429 8.79712 22.39 7.90268 24 7.90268ZM24 5C21.3007 5 18.8345 6.52481 17.627 8.93875L5.75207 32.6883C4.64784 34.8968 4.76603 37.5205 6.06406 39.6203C7.36208 41.7212 9.65572 43 12.1251 43H35.875C38.3443 43 40.6379 41.7212 41.9359 39.6203C43.234 37.5194 43.3522 34.8968 42.2479 32.6883L30.373 8.93875C29.1665 6.52481 26.6993 5 24 5Z" fill="#1E293B" stroke="#1E293B" stroke-width="1.5"/>
</g>
</svg>
