<svg width="48" height="48" viewBox="0 0 48 48" fill="none" xmlns="http://www.w3.org/2000/svg">
<g id="StarFour">
<path id="Vector" d="M43.2854 20.4845L31.7204 16.2788L27.5147 4.71385C27.2524 3.9921 26.7743 3.36857 26.1454 2.92795C25.5164 2.48734 24.7671 2.25098 23.9991 2.25098C23.2312 2.25098 22.4818 2.48734 21.8529 2.92795C21.2239 3.36857 20.7458 3.9921 20.4835 4.71385L16.2779 16.2788L4.71287 20.4845C3.99112 20.7468 3.3676 21.2249 2.92698 21.8539C2.48636 22.4828 2.25 23.2322 2.25 24.0001C2.25 24.768 2.48636 25.5174 2.92698 26.1463C3.3676 26.7753 3.99112 27.2534 4.71287 27.5157L16.2779 31.7213L20.4835 43.2864C20.7458 44.0081 21.2239 44.6316 21.8529 45.0722C22.4818 45.5129 23.2312 45.7492 23.9991 45.7492C24.7671 45.7492 25.5164 45.5129 26.1454 45.0722C26.7743 44.6316 27.2524 44.0081 27.5147 43.2864L31.7204 31.7213L43.2854 27.5157C44.0071 27.2534 44.6306 26.7753 45.0713 26.1463C45.5119 25.5174 45.7482 24.768 45.7482 24.0001C45.7482 23.2322 45.5119 22.4828 45.0713 21.8539C44.6306 21.2249 44.0071 20.7468 43.2854 20.4845ZM29.1966 27.8513C28.8875 27.9637 28.6067 28.1425 28.3741 28.3751C28.1415 28.6077 27.9627 28.8884 27.8504 29.1976L23.9991 39.7895L20.1479 29.1976C20.0355 28.8884 19.8568 28.6077 19.6242 28.3751C19.3916 28.1425 19.1108 27.9637 18.8016 27.8513L8.20975 24.0001L18.8016 20.1488C19.1108 20.0365 19.3916 19.8577 19.6242 19.6251C19.8568 19.3925 20.0355 19.1118 20.1479 18.8026L23.9991 8.21072L27.8504 18.8026C27.9627 19.1118 28.1415 19.3925 28.3741 19.6251C28.6067 19.8577 28.8875 20.0365 29.1966 20.1488L39.7885 24.0001L29.1966 27.8513Z" fill="#1E293B"/>
</g>
</svg>
