<svg width="18" height="18" viewBox="0 0 18 18" fill="none" xmlns="http://www.w3.org/2000/svg">
<g id="discord-icon-svgrepo-com 1">
<g id="Group">
<path id="Vector" d="M3.04128 3.38062C4.17004 2.85244 5.37696 2.46857 6.63877 2.25C6.79374 2.53021 6.97478 2.90709 7.0996 3.2069C8.44093 3.00515 9.76993 3.00515 11.0866 3.2069C11.2114 2.90709 11.3966 2.53021 11.5529 2.25C12.8161 2.46857 14.0244 2.85385 15.1531 3.38342C17.4299 6.82427 18.047 10.1797 17.7385 13.4874C16.2284 14.6152 14.765 15.3003 13.3263 15.7486C12.9711 15.2597 12.6542 14.7399 12.3813 14.1921C12.9011 13.9946 13.399 13.7508 13.8694 13.4678C13.7446 13.3753 13.6225 13.2786 13.5046 13.1792C10.6354 14.5213 7.51791 14.5213 4.68298 13.1792C4.56366 13.2786 4.44161 13.3753 4.31817 13.4678C4.78997 13.7522 5.28919 13.996 5.80899 14.1935C5.53606 14.7399 5.22061 15.2611 4.86402 15.75C3.42392 15.3017 1.95916 14.6166 0.449114 13.4874C0.0870266 9.65288 1.06766 6.32831 3.04128 3.38062ZM11.9904 11.4532C12.8517 11.4532 13.5581 10.649 13.5581 9.66969C13.5581 8.69039 12.8668 7.88482 11.9904 7.88482C11.114 7.88482 10.4077 8.68898 10.4228 9.66969C10.4214 10.649 11.114 11.4532 11.9904 11.4532ZM6.19713 11.4532C7.05844 11.4532 7.76478 10.649 7.76478 9.66969C7.76478 8.69039 7.07355 7.88482 6.19713 7.88482C5.32074 7.88482 4.6144 8.68898 4.62949 9.66969C4.62949 10.649 5.32074 11.4532 6.19713 11.4532Z" fill="#64748B"/>
</g>
</g>
</svg>
