<svg width="18" height="18" viewBox="0 0 18 18" fill="none" xmlns="http://www.w3.org/2000/svg">
<g id="FileCode">
<path id="Vector" d="M15.023 5.78953L11.0855 1.85203C11.0332 1.79981 10.9711 1.7584 10.9029 1.73017C10.8346 1.70194 10.7614 1.68744 10.6875 1.6875H3.9375C3.63913 1.6875 3.35298 1.80603 3.142 2.017C2.93103 2.22798 2.8125 2.51413 2.8125 2.8125V15.1875C2.8125 15.4859 2.93103 15.772 3.142 15.983C3.35298 16.194 3.63913 16.3125 3.9375 16.3125H14.0625C14.3609 16.3125 14.647 16.194 14.858 15.983C15.069 15.772 15.1875 15.4859 15.1875 15.1875V6.1875C15.1876 6.11361 15.1731 6.04043 15.1448 5.97215C15.1166 5.90386 15.0752 5.84181 15.023 5.78953ZM7.71047 11.977C7.76273 12.0293 7.80419 12.0913 7.83247 12.1596C7.86076 12.2279 7.87531 12.3011 7.87531 12.375C7.87531 12.4489 7.86076 12.5221 7.83247 12.5904C7.80419 12.6587 7.76273 12.7207 7.71047 12.773C7.65821 12.8252 7.59616 12.8667 7.52788 12.895C7.4596 12.9233 7.38641 12.9378 7.3125 12.9378C7.23859 12.9378 7.1654 12.9233 7.09712 12.895C7.02884 12.8667 6.96679 12.8252 6.91453 12.773L5.22703 11.0855C5.17473 11.0332 5.13324 10.9712 5.10494 10.9029C5.07663 10.8346 5.06206 10.7614 5.06206 10.6875C5.06206 10.6136 5.07663 10.5404 5.10494 10.4721C5.13324 10.4038 5.17473 10.3418 5.22703 10.2895L6.91453 8.60203C7.02008 8.49648 7.16323 8.43719 7.3125 8.43719C7.46177 8.43719 7.60492 8.49648 7.71047 8.60203C7.81602 8.70758 7.87531 8.85073 7.87531 9C7.87531 9.14927 7.81602 9.29242 7.71047 9.39797L6.42023 10.6875L7.71047 11.977ZM12.773 11.0855L11.0855 12.773C10.9799 12.8785 10.8368 12.9378 10.6875 12.9378C10.5382 12.9378 10.3951 12.8785 10.2895 12.773C10.184 12.6674 10.1247 12.5243 10.1247 12.375C10.1247 12.2257 10.184 12.0826 10.2895 11.977L11.5798 10.6875L10.2895 9.39797C10.184 9.29242 10.1247 9.14927 10.1247 9C10.1247 8.85073 10.184 8.70758 10.2895 8.60203C10.3951 8.49648 10.5382 8.43719 10.6875 8.43719C10.8368 8.43719 10.9799 8.49648 11.0855 8.60203L12.773 10.2895C12.8253 10.3418 12.8668 10.4038 12.8951 10.4721C12.9234 10.5404 12.9379 10.6136 12.9379 10.6875C12.9379 10.7614 12.9234 10.8346 12.8951 10.9029C12.8668 10.9712 12.8253 11.0332 12.773 11.0855ZM10.6875 6.1875V3.09375L13.7812 6.1875H10.6875Z" fill="#64748B"/>
</g>
</svg>
