<svg width="41" height="40" viewBox="0 0 41 40" fill="none" xmlns="http://www.w3.org/2000/svg">
<rect x="0.666504" width="40" height="40" rx="12" fill="#0F172A"/>
<path d="M19.5248 8.37626C19.5047 8.39635 19.4846 8.41778 19.4658 8.43921L14.0737 13.8313C13.5715 14.3335 13.5715 15.1478 14.0737 15.6501C14.5759 16.151 15.3902 16.151 15.8925 15.6501L19.3009 12.2403V19.1375C19.2889 19.6853 19.2152 20.0871 18.8389 20.363L12.0794 24.2657C12.0098 24.3059 11.9455 24.3514 11.8866 24.4023V24.401C10.3598 25.4416 10.3678 26.4018 10.3839 28.1254C10.3853 28.2393 10.3866 28.3571 10.3866 28.4776V30.8669C10.3866 31.5768 10.9625 32.1527 11.6723 32.1527C12.3821 32.1527 12.958 31.5768 12.958 30.8669V27.6205C12.9754 27.1169 13.0611 26.7272 13.4134 26.466L20.5198 22.3624C20.5774 22.3289 20.6309 22.2927 20.6805 22.2526L20.6845 22.2485C20.7247 22.2177 20.7622 22.1829 20.797 22.1481C21.6582 21.3378 21.8296 20.5061 21.8644 19.3584C21.8698 19.3101 21.8725 19.2606 21.8725 19.2097V12.5428L24.9796 15.65C25.4818 16.1509 26.2961 16.1509 26.7984 15.65C27.3006 15.1478 27.3006 14.3335 26.7984 13.8312L21.4988 8.53306C21.4975 8.53038 21.4948 8.52904 21.4935 8.52636L21.4064 8.43931C21.3876 8.41788 21.3676 8.39645 21.3475 8.37636C21.0957 8.12458 20.7649 7.99867 20.4341 8.00001C20.1046 8.00001 19.7765 8.12446 19.5248 8.37626Z" fill="#E2E8F0"/>
<path d="M23.0418 22.1646C22.6869 22.7794 22.8985 23.5655 23.5132 23.9204L27.9464 26.4812C28.3964 26.832 28.391 27.4053 28.383 28.1647C28.383 28.2651 28.3816 28.3696 28.3816 28.478H28.387V30.8674C28.387 31.5772 28.9629 32.1531 29.6727 32.1531C30.3825 32.1531 30.9584 31.5772 30.9584 30.8674V27.2674C30.9584 27.2165 30.9557 27.1669 30.9504 27.1174C30.9062 25.9977 30.6584 25.233 29.4852 24.4227C29.4276 24.3745 29.3647 24.3303 29.2964 24.2901L24.7991 21.6946C24.1844 21.3383 23.3981 21.5499 23.0418 22.1646Z" fill="#E2E8F0"/>
</svg>
