<svg width="18" height="18" viewBox="0 0 18 18" fill="none" xmlns="http://www.w3.org/2000/svg">
<g id="Planet">
<path id="Vector" d="M17.2342 4.2665C16.6963 3.33908 15.276 3.13025 13.1209 3.6576C12.0639 2.8434 10.7893 2.36074 9.45809 2.27056C8.1269 2.18039 6.79883 2.48676 5.64166 3.15097C4.48449 3.81517 3.55012 4.80742 2.95658 6.00238C2.36304 7.19734 2.13695 8.5414 2.30687 9.86478C0.357811 11.8828 0.385936 13.0781 0.766327 13.7334C1.12492 14.3549 1.87305 14.6249 2.85742 14.6249C3.54087 14.6108 4.2203 14.5164 4.88172 14.3437C5.93863 15.1572 7.21286 15.6394 8.54356 15.7294C9.87427 15.8193 11.2018 15.513 12.3586 14.8492C13.5154 14.1853 14.4496 13.1937 15.0433 11.9993C15.637 10.805 15.8635 9.46159 15.6944 8.13861C16.574 7.22455 17.159 6.35619 17.358 5.61299C17.4958 5.0983 17.4543 4.64549 17.2342 4.2665ZM16.2716 5.32119C15.842 6.92291 12.8509 9.3508 10.1179 10.9209C5.35 13.6631 2.12898 13.8403 1.73945 13.1709C1.6368 12.9944 1.69375 12.6618 1.89555 12.2568C2.09542 11.8777 2.33792 11.5227 2.61836 11.1986C2.73715 11.5423 2.88364 11.8757 3.0564 12.1956C3.08274 12.246 3.12371 12.2872 3.17391 12.3138C3.22412 12.3404 3.2812 12.3512 3.33765 12.3447C3.73993 12.2951 4.13819 12.2171 4.52945 12.1113C6.02219 11.721 7.80812 10.9525 9.5582 9.94705C11.3083 8.94158 12.8629 7.79127 13.9492 6.70213C14.235 6.41938 14.5008 6.117 14.7445 5.79721C14.7783 5.75163 14.7975 5.69688 14.7997 5.64015C14.8018 5.58343 14.7867 5.52739 14.7564 5.47939C14.5669 5.17071 14.3529 4.87774 14.1166 4.6033C15.1157 4.43807 16.041 4.45072 16.2611 4.83111C16.3258 4.9415 16.3293 5.10674 16.2716 5.32189V5.32119Z" fill="#64748B"/>
</g>
</svg>
