
<svg width="40" height="40" viewBox="0 0 40 40" fill="none" xmlns="http://www.w3.org/2000/svg">
<rect width="40" height="40" fill="#C7C7C7"/>
<g id="MAINNET">
<path d="M-9742 -1016C-9742 -1017.1 -9741.1 -1018 -9740 -1018H1864C1865.1 -1018 1866 -1017.1 1866 -1016V3284C1866 3285.1 1865.1 3286 1864 3286H-9740C-9741.1 3286 -9742 3285.1 -9742 3284V-1016Z" fill="white" fill-opacity="0.1"/>
<path d="M-9740 -1017H1864V-1019H-9740V-1017ZM1865 -1016V3284H1867V-1016H1865ZM1864 3285H-9740V3287H1864V3285ZM-9741 3284V-1016H-9743V3284H-9741ZM-9740 3285C-9740.55 3285 -9741 3284.55 -9741 3284H-9743C-9743 3285.66 -9741.66 3287 -9740 3287V3285ZM1865 3284C1865 3284.55 1864.55 3285 1864 3285V3287C1865.66 3287 1867 3285.66 1867 3284H1865ZM1864 -1017C1864.55 -1017 1865 -1016.55 1865 -1016H1867C1867 -1017.66 1865.66 -1019 1864 -1019V-1017ZM-9740 -1019C-9741.66 -1019 -9743 -1017.66 -9743 -1016H-9741C-9741 -1016.55 -9740.55 -1017 -9740 -1017V-1019Z" fill="black" fill-opacity="0.1"/>
<g id="Marketplace" clip-path="url(#clip0_3515_7844)">
<rect width="1512" height="2208" transform="translate(-434 -496)" fill="#F8FAFC"/>
<g id="Group 38937">
<g id="Frame 38918">
<g id="Tool" filter="url(#filter0_d_3515_7844)">
<rect x="-24" y="-24" width="313" height="150" rx="10" fill="white" shape-rendering="crispEdges"/>
<rect x="-23.5" y="-23.5" width="312" height="149" rx="9.5" stroke="#E2E8F0" shape-rendering="crispEdges"/>
<g id="Icon L">
<rect width="40" height="40" rx="12" fill="#0F172A"/>
<path id="Vector" fill-rule="evenodd" clip-rule="evenodd" d="M22.8498 16.0424L27.0614 23.1595C29.8803 22.2012 32.8573 24.2415 32.8573 27.176C32.8573 29.5244 30.9049 31.4284 28.4969 31.4284C26.3862 31.4284 24.6002 29.9581 24.2134 27.9753H15.787C15.4002 29.9582 13.6142 31.4284 11.5035 31.4284C9.09544 31.4284 7.14307 29.5244 7.14307 27.176C7.14307 24.2415 10.1202 22.2012 12.9391 23.1595L15.0457 19.601L15.0443 19.6002L17.1506 16.0424C15.234 14.4271 15.1242 11.5653 16.917 9.81686C18.6199 8.1561 21.3805 8.1561 23.0834 9.81686C24.8763 11.5653 24.7665 14.4271 22.8498 16.0424ZM24.2134 26.3767C24.4 25.4201 24.9161 24.5731 25.6485 23.9563L21.4342 16.8407C20.5093 17.1548 19.4911 17.1548 18.5662 16.8407L16.4594 20.3995L16.458 20.3987L14.3519 23.9563C15.0845 24.5733 15.6004 25.4199 15.787 26.3767H24.2134Z" fill="#F8FAFC"/>
</g>
</g>
</g>
</g>
</g>
</g>
<defs>
<filter id="filter0_d_3515_7844" x="-26" y="-24" width="317" height="154" filterUnits="userSpaceOnUse" color-interpolation-filters="sRGB">
<feFlood flood-opacity="0" result="BackgroundImageFix"/>
<feColorMatrix in="SourceAlpha" type="matrix" values="0 0 0 0 0 0 0 0 0 0 0 0 0 0 0 0 0 0 127 0" result="hardAlpha"/>
<feOffset dy="2"/>
<feGaussianBlur stdDeviation="1"/>
<feComposite in2="hardAlpha" operator="out"/>
<feColorMatrix type="matrix" values="0 0 0 0 0 0 0 0 0 0 0 0 0 0 0 0 0 0 0.04 0"/>
<feBlend mode="normal" in2="BackgroundImageFix" result="effect1_dropShadow_3515_7844"/>
<feBlend mode="normal" in="SourceGraphic" in2="effect1_dropShadow_3515_7844" result="shape"/>
</filter>
<clipPath id="clip0_3515_7844">
<rect width="1512" height="2208" fill="white" transform="translate(-434 -496)"/>
</clipPath>
</defs>
</svg>
