<svg width="41" height="40" viewBox="0 0 41 40" fill="none" xmlns="http://www.w3.org/2000/svg">
<rect x="0.666016" width="40" height="40" rx="12" fill="#E2E8F0"/>
<path d="M31.32 25C32.2478 25 33.0121 24.2442 32.8826 23.3255C32.7417 22.3254 32.4747 21.345 32.0866 20.4078C31.4835 18.9519 30.5996 17.629 29.4853 16.5147C28.371 15.4004 27.0481 14.5165 25.5922 13.9134C24.1363 13.3104 22.5759 13 21 13C19.4241 13 17.8637 13.3104 16.4078 13.9134C14.9519 14.5165 13.629 15.4004 12.5147 16.5147C11.4004 17.629 10.5165 18.9519 9.91345 20.4078C9.52526 21.345 9.25834 22.3254 9.11741 23.3255C8.98793 24.2442 9.75216 25 10.68 25C11.6078 25 12.3435 24.2409 12.5228 23.3306C12.633 22.7712 12.7985 22.2228 13.0177 21.6936C13.4519 20.6454 14.0883 19.6929 14.8906 18.8906C15.6929 18.0883 16.6454 17.4519 17.6936 17.0177C18.7419 16.5835 19.8654 16.36 21 16.36C22.1346 16.36 23.2581 16.5835 24.3064 17.0177C25.3546 17.4519 26.3071 18.0883 27.1094 18.8906C27.9117 19.6929 28.5481 20.6454 28.9823 21.6936C29.2015 22.2228 29.367 22.7712 29.4772 23.3306C29.6565 24.2409 30.3922 25 31.32 25Z" fill="#0F172A"/>
<path d="M26.6486 25C27.395 25 28.0132 24.3895 27.87 23.657C27.7807 23.2005 27.646 22.753 27.4672 22.3212C27.1154 21.4719 26.5998 20.7003 25.9497 20.0503C25.2997 19.4002 24.5281 18.8846 23.6788 18.5328C22.8295 18.1811 21.9193 18 21 18C20.0807 18 19.1705 18.1811 18.3212 18.5328C17.4719 18.8846 16.7003 19.4002 16.0503 20.0503C15.4002 20.7003 14.8846 21.4719 14.5328 22.3212C14.354 22.753 14.2193 23.2005 14.13 23.657C13.9868 24.3895 14.605 25 15.3514 25C16.0977 25 16.6826 24.3805 16.9135 23.6708C16.9481 23.5644 16.9869 23.4592 17.0298 23.3555C17.2458 22.8341 17.5623 22.3604 17.9614 21.9614C18.3604 21.5623 18.8341 21.2458 19.3555 21.0298C19.8769 20.8139 20.4357 20.7027 21 20.7027C21.5643 20.7027 22.1231 20.8139 22.6445 21.0298C23.1659 21.2458 23.6396 21.5623 24.0386 21.9614C24.4377 22.3604 24.7542 22.8341 24.9702 23.3555C25.0131 23.4592 25.0519 23.5644 25.0865 23.6708C25.3174 24.3805 25.9023 25 26.6486 25Z" fill="#0F172A"/>
</svg>
