<svg width="40" height="40" viewBox="0 0 40 40" fill="none" xmlns="http://www.w3.org/2000/svg">
<rect width="40" height="40" rx="12" fill="#E2E8F0"/>
<path d="M29.7822 19.5294L22.449 13.1659C22.254 12.9956 21.9715 12.9527 21.7307 13.0545C21.4891 13.1563 21.3341 13.3846 21.3341 13.6368V16.3746C19.4566 16.3762 15.0351 16.7787 12.146 20.2403C10.6977 21.976 10.2069 25.0304 10.0219 26.1807L10.0078 26.2666C9.96275 26.5474 10.1169 26.8218 10.3869 26.9411C10.4769 26.9809 10.5719 27 10.6661 27C10.8552 27 11.041 26.9228 11.171 26.7797C12.2427 25.5953 14.1026 24.0044 16.871 23.1509C18.3126 22.7071 19.81 22.5178 21.3325 22.5886V25.7274C21.3325 25.9731 21.4808 26.1967 21.7142 26.3025C21.9458 26.4067 22.2225 26.3756 22.4225 26.2197L29.7556 20.4926C29.9056 20.3756 29.9948 20.2014 29.9998 20.0169C30.0048 19.8316 29.9248 19.6542 29.7815 19.5293L29.7822 19.5294Z" fill="#0F172A"/>
</svg>
