<svg width="41" height="40" fill="none" xmlns="http://www.w3.org/2000/svg"><rect x=".334" width="40" height="40" rx="12" fill="#E2E8F0"/><path d="m24.27 17.336 3.864-3.863V16.7a.9.9 0 1 0 1.8 0v-5.4a.9.9 0 0 0-.9-.9h-5.4a.9.9 0 1 0 0 1.8h3.228l-3.864 3.864a.9.9 0 1 0 1.273 1.272ZM10.734 28.7v-5.4a.9.9 0 1 1 1.8 0v3.227l3.864-3.864a.9.9 0 1 1 1.273 1.273L13.807 27.8h3.227a.9.9 0 0 1 0 1.8h-5.4a.897.897 0 0 1-.9-.9ZM22.998 23.936l3.864 3.864h-3.228a.9.9 0 1 0 0 1.8h5.4a.897.897 0 0 0 .9-.9v-5.4a.9.9 0 0 0-1.8 0v3.227l-3.863-3.864a.9.9 0 1 0-1.273 1.273ZM12.534 13.473l3.864 3.863a.9.9 0 1 0 1.273-1.272L13.807 12.2h3.227a.9.9 0 0 0 0-1.8h-5.4a.9.9 0 0 0-.9.9v5.4a.9.9 0 1 0 1.8 0v-3.227Z" fill="#0F172A"/><path fill-rule="evenodd" clip-rule="evenodd" d="M11.634 10.65a.65.65 0 0 0-.65.65v5.4a.65.65 0 1 0 1.3 0v-3.227a.25.25 0 0 1 .427-.177l3.864 3.864a.65.65 0 1 0 .919-.92l-3.864-3.863a.25.25 0 0 1 .177-.427h3.227a.65.65 0 1 0 0-1.3h-5.4Zm-1.15.65c0-.635.515-1.15 1.15-1.15h5.4a1.15 1.15 0 0 1 0 2.3h-2.623l3.437 3.437a1.15 1.15 0 1 1-1.627 1.626l-3.437-3.437V16.7a1.15 1.15 0 0 1-2.3 0v-5.4Zm13.15-.65a.65.65 0 1 0 0 1.3h3.228a.25.25 0 0 1 .176.427l-3.863 3.863a.65.65 0 1 0 .919.92l3.864-3.864a.25.25 0 0 1 .426.177V16.7a.65.65 0 1 0 1.3 0v-5.4a.65.65 0 0 0-.65-.65h-5.4Zm-1.15.65c0-.635.515-1.15 1.15-1.15h5.4c.636 0 1.15.515 1.15 1.15v5.4a1.15 1.15 0 0 1-2.3 0v-2.624l-3.436 3.437a1.15 1.15 0 1 1-1.627-1.626l3.437-3.437h-2.624a1.15 1.15 0 0 1-1.15-1.15Zm-12 12a1.15 1.15 0 1 1 2.3 0v2.624l3.437-3.437a1.15 1.15 0 1 1 1.627 1.626L14.41 27.55h2.623a1.15 1.15 0 0 1 0 2.3h-5.4c-.293 0-.588-.112-.813-.337l.176-.175-.176.175a1.147 1.147 0 0 1-.25-.373l.23-.095-.23.095a1.146 1.146 0 0 1-.087-.44v-5.4Zm1.15-.65a.65.65 0 0 0-.65.65v5.4a.647.647 0 0 0 .19.46l-.176.176.177-.176c.127.127.293.19.46.19h5.4a.65.65 0 1 0 0-1.3h-3.228a.25.25 0 0 1-.177-.427l3.864-3.864a.65.65 0 0 0-.92-.919l-3.863 3.864a.25.25 0 0 1-.427-.177V23.3a.65.65 0 0 0-.65-.65Zm16.25.65a1.15 1.15 0 1 1 2.3 0v5.4c0 .155-.03.304-.087.44m-3.839-1.59-3.437-3.437a1.15 1.15 0 0 1 1.627-1.626l3.436 3.437V23.3m1.15-.65a.65.65 0 0 0-.65.65v3.227a.25.25 0 0 1-.426.177l-3.864-3.864a.65.65 0 1 0-.92.92l3.864 3.863a.25.25 0 0 1-.176.427h-3.228a.65.65 0 1 0 0 1.3h5.4a.647.647 0 0 0 .601-.401.647.647 0 0 0 .05-.25v-5.4a.65.65 0 0 0-.65-.65Z" fill="#0F172A"/></svg>