<svg width="40" height="40" viewBox="0 0 40 40" fill="none" xmlns="http://www.w3.org/2000/svg">
<rect width="40" height="40" rx="12" fill="#E2E8F0"/>
<path d="M30.32 24C31.2478 24 32.0121 23.2442 31.8826 22.3255C31.7417 21.3254 31.4747 20.345 31.0866 19.4078C30.4835 17.9519 29.5996 16.629 28.4853 15.5147C27.371 14.4004 26.0481 13.5165 24.5922 12.9134C23.1363 12.3104 21.5759 12 20 12C18.4241 12 16.8637 12.3104 15.4078 12.9134C13.9519 13.5165 12.629 14.4004 11.5147 15.5147C10.4004 16.629 9.5165 17.9519 8.91345 19.4078C8.52526 20.345 8.25834 21.3254 8.11741 22.3255C7.98793 23.2442 8.75216 24 9.68 24C10.6078 24 11.3435 23.2409 11.5228 22.3306C11.633 21.7712 11.7985 21.2228 12.0177 20.6936C12.4519 19.6454 13.0883 18.6929 13.8906 17.8906C14.6929 17.0883 15.6454 16.4519 16.6936 16.0177C17.7419 15.5835 18.8654 15.36 20 15.36C21.1346 15.36 22.2581 15.5835 23.3064 16.0177C24.3546 16.4519 25.3071 17.0883 26.1094 17.8906C26.9117 18.6929 27.5481 19.6454 27.9823 20.6936C28.2015 21.2228 28.367 21.7712 28.4772 22.3306C28.6565 23.2409 29.3922 24 30.32 24Z" fill="#0F172A"/>
<circle cx="20" cy="25" r="4" fill="#0F172A"/>
</svg>
